<?xml version="1.0" standalone="no"?>
<!DOCTYPE svg PUBLIC "-//W3C//DTD SVG 1.1//EN" "http://www.w3.org/Graphics/SVG/1.1/DTD/svg11.dtd" >
<svg xmlns="http://www.w3.org/2000/svg">
<metadata>
Created by FontForge 20120731 at Mon Sep 19 10:04:41 2016
 By admin
</metadata>
<defs>
<font id="iconfont" horiz-adv-x="1024" >
  <font-face 
    font-family="iconfont"
    font-weight="500"
    font-stretch="normal"
    units-per-em="1024"
    panose-1="2 0 6 3 0 0 0 0 0 0"
    ascent="896"
    descent="-128"
    x-height="792"
    bbox="0 -278 4595 1013.05"
    underline-thickness="50"
    underline-position="-100"
    unicode-range="U+0078-E68E"
  />
<missing-glyph horiz-adv-x="374" 
d="M34 0v682h272v-682h-272zM68 34h204v614h-204v-614z" />
    <glyph glyph-name=".notdef" horiz-adv-x="374" 
d="M34 0v682h272v-682h-272zM68 34h204v614h-204v-614z" />
    <glyph glyph-name=".null" horiz-adv-x="0" 
 />
    <glyph glyph-name="nonmarkingreturn" horiz-adv-x="341" 
 />
    <glyph glyph-name="x" unicode="x" horiz-adv-x="1001" 
d="M281 543q-27 -1 -53 -1h-83q-18 0 -36.5 -6t-32.5 -18.5t-23 -32t-9 -45.5v-76h912v41q0 16 -0.5 30t-0.5 18q0 13 -5 29t-17 29.5t-31.5 22.5t-49.5 9h-133v-97h-438v97zM955 310v-52q0 -23 0.5 -52t0.5 -58t-10.5 -47.5t-26 -30t-33 -16t-31.5 -4.5q-14 -1 -29.5 -0.5
t-29.5 0.5h-32l-45 128h-439l-44 -128h-29h-34q-20 0 -45 1q-25 0 -41 9.5t-25.5 23t-13.5 29.5t-4 30v167h911zM163 247q-12 0 -21 -8.5t-9 -21.5t9 -21.5t21 -8.5q13 0 22 8.5t9 21.5t-9 21.5t-22 8.5zM316 123q-8 -26 -14 -48q-5 -19 -10.5 -37t-7.5 -25t-3 -15t1 -14.5
t9.5 -10.5t21.5 -4h37h67h81h80h64h36q23 0 34 12t2 38q-5 13 -9.5 30.5t-9.5 34.5q-5 19 -11 39h-368zM336 498v228q0 11 2.5 23t10 21.5t20.5 15.5t34 6h188q31 0 51.5 -14.5t20.5 -52.5v-227h-327z" />
    <glyph glyph-name="uniE600" unicode="&#xe600;" 
d="M384 297q-40 30 -62.5 74.5t-22.5 96.5q0 88 62 150t150.5 62t150.5 -62t62 -150q0 -52 -23 -96.5t-62 -74.5q72 -26 129 -77.5t89 -121.5q103 125 103 287q0 91 -35.5 174t-95.5 143t-143 95.5t-174 35.5t-174 -35.5t-143 -95.5t-96 -143t-36 -174q0 -161 103 -285
q32 69 89 120.5t129 76.5z" />
    <glyph glyph-name="uniE601" unicode="&#xe601;" 
d="M401 702q-27 26 -31 62q-4 18 3.5 37.5t29.5 25.5q1 1 4 1.5t9.5 -0.5t13 -4t15 -12t15.5 -23l18 -45q1 -1 1 -2v-1h1l-3 -10l-5 1q-4 1 -4 5v4l-18 43q-8 19 -19.5 27.5t-17 7t-7.5 -0.5q-15 -5 -22 -18t-5 -22.5t1 -11.5q4 -32 28 -56zM377 241l-86 6h-1q-3 0 -8.5 1
t-19 5.5t-24 12.5t-19.5 25.5t-10 40.5q-11 65 -7 82l-1 168q1 4 0 17t6 36.5t21 38.5q26 28 73 27l112 7l1 1l8 -6l-2 -3q-2 -2 -4 -2l-115 -7q-43 1 -65 -24q-13 -14 -19.5 -35.5t-5.5 -33.5t0 -16l1 -169q-4 -16 7 -79q1 -21 9 -36.5t17 -23t20.5 -11.5t16.5 -4.5t9 -0.5
l87 -7l255 7q17 -2 103 10q22 1 46 11q13 3 23 10t13.5 15.5t6 17t1.5 14t0 6.5l5 109l3 148q4 30 -13 50q-11 13 -29.5 21.5t-28.5 10t-14 1.5q-21 5 -109 10q-18 4 -72 4q-3 0 -4.5 2.5t-0.5 4.5q8 17 12.5 45t5.5 43.5t1 21.5q-3 22 -14 26q-15 5 -39 -19
q-24 -22 -57 -116l-9 4q34 97 59 119q28 29 50 21q16 -5 20 -35q0 -64 -16 -107q49 0 66 -4q85 -4 109 -10q4 0 14.5 -2t31 -11t32.5 -24q19 -23 16 -57l-4 -147l-5 -109q2 0 0.5 -15.5t-14 -34t-37.5 -23.5q-1 0 -8 -2.5t-19 -5.5t-21 -3q-86 -12 -105 -10zM405 602
q-4 0 -5 3q-2 3 -4 4q-4 0 -8 -6q-3 -4 -7 -0.5t-1 7.5q8 10 18 9q7 -1 11 -10q2 -5 -2 -7h-2zM645 602q-3 0 -4 3q-2 3 -4 4q-4 0 -8 -6q-4 -3 -7.5 0t-0.5 7q8 10 17 9q8 -1 12 -10q2 -5 -2 -7h-3zM253 602q-23 -33 -35 -88q0 -3 -0.5 -7.5t1 -16t4.5 -19.5t11.5 -13
t21.5 -2q2 0 5 1t10.5 6.5t10.5 14t5.5 23t-5.5 35.5zM248 452q-13 0 -21 9q-16 17 -11 53q12 56 35 90l3 3l31 -70q12 -41 -2 -64q-10 -17 -26 -20q-5 -1 -9 -1zM253 597q-22 -36 -32 -84q-4 -34 10 -49q8 -10 25 -6q14 2 23 18q12 21 1 59zM297 486zM474 478h-177
q-8 0 -8 7.5t8 7.5h177q7 0 7 -7.5t-7 -7.5zM759 478h-176q-8 0 -8 7.5t8 7.5h176q8 0 8 -7.5t-8 -7.5zM544 298h-70q-11 0 -11 10.5t11 10.5h70q11 0 11 -11q0 -4 -3 -7t-8 -3zM811 342q0 -8 -13 -14t-31.5 -6t-31.5 6t-13 14t13 14t31.5 6t31.5 -6t13 -14zM350 77
q-5 0 -10 3q-20 11 -15 56q7 40 60 113l9 -6q-4 -5 -14.5 -20t-26 -43.5t-18.5 -44.5q-4 -38 10 -47q8 -4 23 6l1 1q1 1 3 3.5t4.5 5.5t6 7t6.5 8.5t6 9.5t5.5 10t4.5 10t3 10l10 -2q-6 -33 -44 -71q-13 -9 -24 -9zM460 -76q-16 0 -29.5 13t-20.5 33t-9.5 30t-4.5 17
q-4 19 8 110q1 4 2 13t2.5 20t3 23t2.5 23t2 20t2 15l1 6q0 5 5.5 4.5t4.5 -5.5q-11 -100 -15 -120q-12 -90 -8 -107q1 -3 2.5 -9t6 -20.5t10 -26t15 -20.5t20.5 -9h2q12 0 20.5 9t7.5 26q-1 55 -5 63q-4 3 -1 7t8 0q7 -6 8 -69q1 -22 -10 -34t-28 -12h-2zM542 24q-2 0 -4 2
q-13 13 -30 12.5t-23.5 -5t-11.5 -7.5q-4 -4 -7 0t0 7q3 2 5.5 4t12 6.5t18.5 6t21 -2.5t23 -14q3 -4 -1 -7q-1 -2 -3 -2zM554 -77q-4 0 -8 1q-13 -1 -20 8q-23 25 -7 106l10 -2q-3 -14 -4.5 -31t0 -37.5t8.5 -28.5q5 -6 13 -5h1h1q2 1 8.5 -1t17 6t15.5 24q17 50 19 74v1
q0 63 -6 84l-1 3q-15 120 -10 129l9 -4q-3 -10 11 -123l1 -3q7 -23 7 -87q-3 -28 -20 -77q-11 -37 -45 -37zM654 82h-4q-4 2 -10.5 4.5t-19 15t-19.5 29.5l9 4q6 -15 17 -26t16.5 -13.5t9.5 -3.5q4 0 6 3q12 10 7 50q0 17 -19 49t-38 55l8 7q7 -9 17.5 -23.5t26 -43
t15.5 -43.5q6 -44 -10 -59q-5 -5 -12 -5zM342 332.5q0 -8.5 -13 -14t-31.5 -5.5t-32 5.5t-13.5 14t13.5 14.5t32 6t31.5 -6t13 -14.5z" />
    <glyph glyph-name="uniE602" unicode="&#xe602;" 
d="M505 730q-4 4 -9 10.5t-11.5 22t-3.5 27.5q6 21 39 30l13 1q1 0 3 -1q29 -9 58 -69l-9 -4q-10 21 -20.5 35t-17 20t-13 8t-8.5 1.5t-3 -0.5q-27 -8 -32 -24q-3 -12 5 -26.5t16 -23.5zM588 731l-9 4q4 9 10.5 20.5t21.5 34.5t34.5 36t39.5 10q15 -5 19 -11q17 -24 -12 -94
l-10 4q28 64 14 84q-5 7 -12 7q-14 2 -29 -7t-26 -22t-21.5 -30t-14 -24.5t-5.5 -11.5zM512 255q-27 0 -38 2q-96 0 -124 18q-4 2 -8 5t-10.5 13.5t-12 26t-9.5 45.5t-4 67q1 191 3 210q0 38 26 63q29 28 80 26l115 7l1 -10l-116 -7q-48 1 -73 -23q-23 -23 -23 -55v-1v-1
q-2 -10 -3 -209q0 -37 4 -66t9 -43.5t11.5 -24t9 -11.5t4.5 -2l1 -1q24 -17 119 -17q54 -6 292 7q131 8 156 25q18 8 27 40.5t7.5 56.5t0.5 29q0 2 1 47t2 92.5t1 48.5q6 42 -14 66q-23 28 -66 31q-108 19 -197 14l-1 10q8 0 29 1t72 -3t98 -12q4 0 13.5 -1.5t28.5 -10
t31 -22.5q23 -28 16 -73q-4 -185 -4 -187q1 -1 0 -20.5t-2.5 -41.5t-11.5 -44.5t-26 -29.5q0 -1 -10 -5t-50 -11t-100 -10q-212 -9 -255 -9zM507 575h-3q-19 2 -28 21q-2 5 2.5 7t6.5 -2q9 -15 20 -16q16 -2 35 23q3 4 7 1t1 -7q-21 -27 -41 -27zM728 575h-3q-19 2 -28 21
q-2 5 2.5 7t6.5 -2q9 -15 20 -16q16 -1 35 23q3 4 7 1t1 -7q-21 -27 -41 -27zM349 457q-7 0 -7 7q-1 8 7 8q69 8 122.5 22t67.5 20t20 10.5t10.5 -2t-2.5 -10.5q-7 -5 -21 -11.5t-69.5 -21t-126.5 -22.5h-1zM324 443h-1q-4 0 -4 4t4 4h1q12 0 18 15q1 3 4.5 2.5t2.5 -4.5
q-2 -8 -8.5 -14.5t-16.5 -6.5zM341 436q-3 0 -4 3t3 4q13 3 13 17q0 4 3 4h1q3 0 3 -4q1 -20 -18 -24h-1zM919 460q-93 4 -211 54q-7 3 -4 10t10 4q117 -49 205 -53q8 -1 8 -8q-1 -7 -8 -7zM948 444q-14 1 -27 19q-2 3 1 5t5 -1q11 -14 21 -16q4 0 4 -4q-1 -3 -4 -3z
M934 436h-1q-18 5 -23 25q0 4 3.5 4.5t4.5 -2.5q3 -16 17 -19q4 -1 3 -5q-1 -3 -4 -3zM594 276q-27 0 -34 17l-1 1l-19 146l180 3l-15 -128v-26l-3 -1q-38 -12 -55 -12h-45h-8zM567 296q6 -13 27 -13q5 0 8 1h45q14 0 51 10v22l13 120l-163 -3zM518 260zM461 88q-7 0 -12 4
q-18 14 -7 58q3 16 22 45.5t31.5 44.5t19.5 23l6 -5q-65 -75 -72 -109q-9 -40 4 -51q8 -6 26 4q43 45 50 70l7 -2q-9 -30 -52 -74h-1q-13 -8 -22 -8zM584 -61q-6 0 -12 2q-19 6 -28 26q-23 33 -25 110q9 42 15 131l8 -1q-12 -115 -15 -131v-2v-8q0 -4 0.5 -10.5t1.5 -13.5
t2.5 -14.5t3.5 -15.5t4 -15.5t5 -14.5t7 -12q9 -17 23 -22q15 -5 33 5q20 29 8 74l-4 26l8 1l4 -25q3 -14 3.5 -28t-1.5 -22.5t-5 -16.5t-4.5 -10.5t-2.5 -3.5l-2 -1q-14 -8 -27 -8zM595 41q-2 0 -3 2q-2 2 1 5q1 1 3.5 3t9 5.5t13.5 5.5t17 2t19 -4t18 -12q3 -3 0.5 -5.5
t-5.5 -0.5q-8 7 -16 11q-12 7 -26.5 2.5t-20 -7.5t-7.5 -6q-1 -1 -3 -1zM687 -61h-3q-21 0 -32 10q-10 10 -11 23q-2 12 5 83h8q-7 -69 -5 -82q0 -4 1 -8.5t10 -11.5t24 -7h1v0q27 -3 47 65q15 90 2 130q-13 49 -11 74l8 -1q-3 -23 11 -71q14 -44 -3 -134q-6 -22 -14 -37.5
t-16 -22t-13 -8.5t-9 -2zM793 92h-4q-4 1 -9.5 3.5t-20.5 18t-28 42.5l6 3q12 -24 26 -39t19 -17.5t8 -2.5q9 -1 14 4q10 11 6 39q-2 16 -20 47t-31.5 49.5t-18.5 23.5l6 5q68 -88 71 -124q6 -32 -8 -46q-6 -6 -16 -6zM163 30q-39 0 -57 21q-17 21 -12 55q-16 4 -36 41
q-13 32 -1 54q11 21 38 28q2 8 7 15.5t20.5 16.5t37.5 8l20 -1q38 -11 49 -65l-8 -1q-4 19 -11.5 32t-15 18t-15.5 8.5t-12.5 2t-6.5 -0.5h-3q-44 0 -55 -37l-1 -3h-2q-2 0 -7 -2t-14.5 -8t-13.5 -15q-11 -19 1 -47q8 -15 17.5 -26.5t14.5 -10.5l6 1l-1 -6q-1 -3 -1.5 -9
t2 -20t9.5 -23q17 -20 56 -18q4 0 10 1t21 6t26 11.5t19.5 18t7.5 26.5q-4 39 -12 51l6 5q10 -15 13 -56q2 -20 -10 -35t-32 -22.5t-30.5 -10t-17.5 -3.5h-6zM216 146q-3 0 -4 3t3 4l95 36l4 3l-100 -28l-2 7l89 40l9 6l-110 -30q-4 -1 -5 2.5t3 4.5l162 44l-56 -33l-44 -20
l105 29l-52 -32l-96 -36h-1zM934 351.5q0 -8.5 -13 -14t-31.5 -5.5t-31.5 5.5t-13 14t13 14.5t31.5 6t31.5 -6t13 -14.5zM446 343.5q0 -8.5 -13 -14t-32 -5.5t-32 5.5t-13 14t13 14t31.5 5.5t32 -5.5t13.5 -14z" />
    <glyph glyph-name="uniE603" unicode="&#xe603;" 
d="M388 601l-12 12q-7 7 -17.5 25.5t-8.5 33.5q2 21 25 34q5 4 12 4q32 -3 85 -88l-7 -4q-50 81 -78 84q-4 0 -6 -2h-1q-21 -12 -23 -29q-3 -28 36 -64zM572 600l-7 3l27 54q16 38 5 51q-5 8 -14 6q-14 0 -31.5 -12t-30.5 -26t-28 -34t-19 -27t-8 -13l-6 4q5 9 13.5 21.5
t27.5 37t41 41t41 16.5q14 0 20 -9q13 -17 -4 -59zM409 182q-20 0 -31 1q-103 3 -127 27q-1 0 -5 4.5t-10.5 20t-8.5 38.5q-9 146 -5 171q0 7 -0.5 24.5t1 45t6.5 37.5q0 2 2 6t9.5 13t17.5 16t29 13t43 6l89 3v-8l-89 -2q-22 -1 -40 -6t-27.5 -12t-16 -15t-8.5 -11.5
t-2 -5.5q-4 -9 -5.5 -36t-1.5 -45t1 -23q-3 -19 4 -171q6 -47 22 -57q23 -24 122 -26q45 -3 309 13q27 1 47 6t29.5 10t15.5 11t7 9t1 4v1q7 15 13 98v167q-1 18 -7.5 32t-14 21.5t-17.5 12.5t-14 6t-7 2q-55 15 -184 17v8q134 -4 186 -18q1 0 6.5 -1.5t15.5 -6.5t19 -13.5
t16.5 -24t8.5 -35.5v-168q-6 -82 -14 -99q0 -4 -2 -7.5t-8.5 -10.5t-17 -12.5t-31 -10t-47.5 -5.5q-197 -14 -279 -14zM371 571q-3 0 -4 3q-1 2 -3 3q-3 0 -8 -5q-3 -2 -5.5 0.5t0.5 5.5q7 8 15 6q6 -1 8 -7q2 -4 -2 -5zM643 574q-2 0 -3 2q-1 3 -3 3q-3 1 -8 -4
q-3 -3 -5.5 0t-0.5 6q8 7 16 6q5 -1 8 -8q1 -3 -2 -5h-2zM720.5 359q-3.5 0 -6.5 2q-18 19 -38 26.5t-35 6t-29.5 -8t-20 -10.5t-8.5 -7q-7 -7 -13 0t0 13l10 7q6 5 23.5 13t35.5 10t42.5 -6.5t45.5 -30.5q7 -6 0 -13q-3 -2 -6.5 -2zM376 272q-39 0 -67 27.5t-28 66.5
t28 66.5t67 27.5t66.5 -27.5t27.5 -66.5t-27.5 -66.5t-66.5 -27.5zM375.5 453q-35.5 0 -61 -25.5t-25.5 -61.5t25.5 -61t61.5 -25t61 25t25 61t-25.5 61.5t-61 25.5zM391 348zM360 347.5q0 12.5 9 21.5t22 9t21.5 -9t8.5 -21.5t-8.5 -21.5t-21.5 -9t-22 9t-9 21.5zM519 217
q-15 0 -30.5 6t-21.5 10.5t-8 7.5q-3 2 -0.5 5t5.5 0.5t7 -6t16 -9t23.5 -7t27.5 3.5t30 18q3 3 5.5 0t0.5 -5q-25 -24 -55 -24zM299 127q-36 9 -38 27q-3 21 37 43l3 -7q-11 -6 -22.5 -16t-10.5 -19q2 -12 32 -20q95 5 120 14l3 -8q-30 -9 -123 -14h-1zM392 -70q-4 0 -8 1
q-17 5 -25 26q-5 15 6 37.5t21 34.5t20 21q0 8 14 108q0 3 4 2.5t3 -3.5q-13 -104 -13 -109l-1 -1l-1 -1q-6 -6 -15.5 -16.5t-22.5 -33.5t-8 -36q9 -18 20 -21t23 6q3 3 12.5 11.5t25.5 26.5t22 31l2 3l3 -2q2 0 5.5 -1.5t12 -4t16 -3t15 1t11.5 7.5q3 3 6 0.5t1 -5.5
q-18 -23 -66 -3q-17 -29 -61 -68q-12 -9 -22 -9zM627 -76q-22 0 -55 31q-17 10 -40 54q-1 3 2 5t5 -2q22 -43 37 -50l1 -1q14 -13 30.5 -23t24.5 -5q4 0 12 11q5 6 6 13q3 14 -8 28q-32 41 -38 46l-2 1v1q-16 123 -14 126q3 3 6 1q2 -1 1 -4q0 -9 14 -120q10 -9 39 -46
q13 -18 10 -35q-4 -18 -22 -29q-4 -2 -9 -2zM701 131q-10 0 -17 1q-8 0 -93 12l1 8q84 -13 93 -13q24 -1 46 2.5t23 13.5q2 7 -2 14q-10 18 -53 26l1 7q47 -8 59 -30q6 -10 2 -19q-2 -22 -60 -22zM773 649h-5q-21 1 -37 15h-4q-37 0 -47 24q-2 4 -5 12.5t-0.5 27t18.5 30.5
q-8 37 9 62q17 22 55 24q38 0 57 -36q17 0 29.5 -10t12.5 -31q-1 -17 -11 -26q7 -34 -8 -47l-1 -2l-4 -3q-2 -2 -4 -4.5t-4.5 -5t-3.5 -4.5q-1 -3 -5 -7.5t-16 -11.5t-26 -7zM734 672l2 -1q14 -14 32 -14q3 -1 5 -1q26 0 41 23q5 7 17 20q14 12 6 42v3l2 1q9 7 9 22
q0 33 -34 33h-2h-3l-1 2q-8 17 -21 25.5t-20 9t-10 0.5q-34 -2 -48 -22q-17 -23 -8 -58l1 -2l-2 -2q-15 -10 -18 -26t-0.5 -23.5t5.5 -12.5q8 -19 40 -19h5h1h1zM721 737l20 -6q-1 3 -2 5l4 1q2 -3 3 -8l13 -3q3 2 7 5l3 -4q-2 -1 -4 -3l19 -6l-1 -4l-63 19zM728 727l45 -14
l-5 -15l-4 1l1 3l-37 11l-1 -3l-4 2zM767 711l-36 11l-2 -5l37 -11zM736 753l44 -13l-4 -14l-4 1v2l-35 10l-1 -2l-4 2zM735 761l23 -7l1 5l-27 8l1 4l27 -8l2 5l5 -1l-2 -6l27 -8l-1 -4l-27 8l-1 -4l23 -7l-1 -4l-51 15zM775 737l-36 11l-1 -5l35 -10zM345 265
q0 -7 -11 -12t-27 -5t-27.5 5t-11.5 12t11.5 12t27.5 5t27 -5t11 -12zM775 273q0 -7 -11.5 -12t-27.5 -5t-27 5t-11 12t11 12t27 5t27.5 -5t11.5 -12z" />
    <glyph glyph-name="uniE604" unicode="&#xe604;" 
d="M378 715q-5 4 -11.5 11t-17.5 26t-11 35q1 22 20 38q3 2 8.5 4.5t19 0.5t23.5 -14q1 0 9.5 -9t24 -29t28.5 -41l-7 -4q-28 48 -60 78q-19 22 -41 8q-17 -14 -17 -32q0 -15 10 -32t17 -24.5t11 -10.5zM580 716l-7 3l29 58q16 35 6 50q-6 10 -18 10q-18 -2 -37.5 -15
t-33.5 -28.5t-27.5 -35t-18.5 -28t-7 -12.5l-7 4q5 8 13 21t26.5 38.5t43 43.5t48.5 20q16 0 25 -14q12 -19 -6 -57zM428 260q-38 0 -64 3l-79 6q-2 0 -7.5 1t-18 6t-23 13.5t-20 26.5t-11.5 43l-4 236v41q-1 25 18 47q31 35 103 38h93v-7h-93q-69 -4 -97 -36
q-19 -22 -16 -42v-41l4 -236q2 -23 10.5 -39.5t17.5 -24.5t20.5 -12.5t16.5 -5t8 -0.5l79 -7q101 -10 331 13q84 2 111 33q12 13 10 25l6 61l5 204q3 41 -20 65q-12 13 -32 20.5t-29 8.5t-14 1q-15 2 -59 5.5t-76.5 5t-37.5 2.5v7q142 -7 173 -13q53 -2 80 -31
q26 -27 22 -72l-4 -203l-6 -61q1 0 0.5 -4t-3.5 -11.5t-9 -14.5q-29 -34 -117 -36q-163 -15 -268 -15zM341 682l-6 5q7 8 17 8q8 -1 13 -8l-6 -5q-3 5 -7 5q-6 1 -11 -5zM639 684l-6 5q8 8 17 8q8 -1 13 -9l-6 -4q-3 5 -7 5h-1q-5 0 -10 -5zM450 489q-43 38 -82 33
q-33 -4 -53 -33l-5 3q21 31 58 35q41 5 85 -34zM692 489q-32 38 -67 37q-15 -1 -30.5 -11t-20.5 -16t-8 -10l-4 3q3 5 8.5 11t21.5 16.5t33 11.5q37 2 71 -39zM518 307q-40 0 -73 25l3 4l9 -6q6 -4 21 -10t29.5 -8t34 3.5t36.5 20.5l3 -3q-28 -26 -63 -26zM336 100
q-5 0 -9 2q-13 8 -10 34q1 18 10.5 38.5t20 35t24.5 28.5t20 19.5t10 8.5l3 -4q-8 -6 -22 -19t-36.5 -46t-24.5 -62q-3 -22 7 -28q14 -8 51 23q33 51 36 59l4 -1q-3 -10 -36 -61v-1q-31 -26 -48 -26zM466 -75q-3 0 -4 1q-13 0 -24.5 12.5t-18 32t-9.5 30t-4 18.5q-5 11 0 97
v1q10 17 15 108h5q-3 -88 -15 -110q-5 -86 -1 -94h1v-1q0 -3 1.5 -9.5t6 -22t10 -27t14.5 -21t19 -9.5q16 -2 26 8q13 13 10 43l-4 51l5 1l4 -52q4 -32 -12 -47q-10 -10 -25 -10zM549 24q-19 13 -37.5 12.5t-24.5 -4.5t-10 -8l-4 4q1 1 4 3t11 5.5t16.5 5t21.5 -1.5t26 -12z
M560 -75q-17 0 -31 12q-18 12 -1 96l5 -1q-6 -29 -7 -54.5t6 -36.5q17 -14 34 -11q16 3 27 25q3 5 8.5 17.5t12 36.5t3.5 39v4v8q0 5 -0.5 11.5t-0.5 14t-0.5 15t-1.5 14.5t-2 13t-2 9q-14 78 -10 89l5 -2q-3 -8 10 -85q7 -20 7 -91q7 -35 -24 -95q-13 -24 -32 -28h-6z
M652 99q-5 0 -10 3q-21 10 -34 49l5 2q12 -38 31 -47q7 -3 15 -1q3 0 10 14q12 21 7 53q-37 94 -44 100l3 4q9 -7 46 -102q3 -24 -2.5 -42.5t-10 -23.5t-7.5 -7q-4 -2 -9 -2zM319 349q0 -6 -10 -10.5t-23.5 -4.5t-23 4.5t-9.5 10.5t9.5 10.5t23 4.5t23.5 -4.5t10 -10.5z
M788 364q0 -6 -10 -10.5t-23.5 -4.5t-23.5 4.5t-10 10.5t10 10.5t23.5 4.5t23.5 -4.5t10 -10.5z" />
    <glyph glyph-name="uniE605" unicode="&#xe605;" 
d="M335 624q-5 5 -13 13.5t-19 30t-10 40.5q3 32 37 54q8 5 21 0q34 -13 66 -93l-7 -3q-30 76 -62 88q-9 4 -14 2q-31 -20 -33 -48q-1 -18 9.5 -38t18 -28t11.5 -12zM420 1q-13 1 -26 13.5t-18 20.5t-8 15l-36 42l-1 1v1q-3 21 9 32q18 18 67 7l8 -2l287 33q92 12 117 49
q11 16 8 29v42v51h8l-1 -51v-41q4 -17 -8 -34q-27 -41 -123 -52l-278 -33q18 -17 48 -69l1 -1q1 -21 -11 -35q-15 -17 -43 -18zM339 97q1 -1 5.5 -6.5t13 -15.5t16.5 -20l1 -1q20 -43 45 -45h1q24 2 37 16q9 10 8 27q-39 67 -52 71h-1q-2 1 -8 2q-45 10 -60 -4q-9 -8 -6 -24
zM834 454h-7v65q-1 27 -8 48t-15 31t-18 16.5t-14 7.5t-6 1q-92 20 -246 9h-6l2 5q31 127 6 149q-6 5 -13 3h-2q-14 -1 -30 -18t-27.5 -37.5t-22.5 -47t-14.5 -38t-5.5 -17.5l-7 2q3 13 9.5 30t22 51.5t35.5 58t40 24.5q11 3 20 -5q28 -25 -3 -152q155 10 243 -9q2 0 7 -1.5
t16 -8.5t19.5 -17.5t16.5 -33t8 -51.5v-65zM256 110q-27 0 -42 5h-1q-4 0 -9 1t-18.5 7t-23.5 15.5t-18.5 30t-9.5 48.5q-22 147 -15 170l-1 134q-1 4 0 10.5t8 22.5t19.5 28.5t41 24t66.5 13.5q78 14 97 11l-1 -8q-18 3 -95 -10q-36 -3 -63 -13.5t-39 -22t-19 -26
t-7.5 -20.5t-0.5 -10l2 -135l-1 -1q-6 -18 15 -168q1 -26 9 -45t17 -28t21 -14.5t17.5 -6t8.5 -0.5l1 -1q13 -3 28.5 -3.5t93.5 1.5v-8q-59 -2 -81 -2zM445 -78q-52 0 -67 24q-4 7 -4.5 17t1.5 18t6 16.5t6 11.5t3 5l6 -4q0 -2 -2 -5t-5.5 -10t-5.5 -14.5t-2 -16t4 -14.5
q16 -27 92 -19q20 5 32 15t14 15t2 8q7 26 -5 40q-7 9 -21 13t-23 3t-11 -1l-1 8q42 5 62 -18q15 -17 7 -46q-1 -4 -3 -10t-15.5 -17.5t-35.5 -16.5q-19 -2 -34 -2zM598 -72q-18 0 -31 3.5t-19.5 8t-10 10t-4 8t-0.5 4.5q-2 31 16 51q27 28 82 28h1q2 1 5 1h1q16 0 27.5 -12
t14 -19.5t3.5 -11.5q5 -24 -7 -41q-14 -22 -43 -27q-19 -3 -35 -3zM638 34h-5h-2q-52 0 -76 -27q-16 -17 -14 -45q0 -1 0.5 -3t3.5 -6.5t8.5 -8t17.5 -6t27 -2.5t34 2q26 6 38 24q9 14 5 35q-1 5 -3 11t-11 16t-23 10zM631 38l-6 109l13 -29q26 12 39 37l7 -3
q-14 -30 -46 -43l-3 -1l4 -70h-8zM499 154q-10 0 -17 9.5t-7 24t7 24t17 9.5t17 -9.5t7 -24t-7 -24t-17 -9.5zM499 213q-7 0 -11.5 -7.5t-4.5 -18t4.5 -18t11.5 -7.5t11.5 7.5t4.5 18t-4.5 18t-11.5 7.5zM314 599l-6 5q13 12 25 4q2 -1 4 -4l-6 -5q-1 2 -3 3q-6 5 -14 -3z
M651 614l-6 6q12 12 25 4q2 -2 4 -5l-6 -4l-3 3q-6 4 -14 -4zM315.5 332q-47.5 0 -81 33.5t-33.5 81t33.5 81.5t81 34t81.5 -34t34 -81.5t-34 -81t-81.5 -33.5zM315.5 554q-44.5 0 -75.5 -31.5t-31 -75.5t31 -75.5t75.5 -31.5t76 31.5t31.5 75.5t-31.5 75.5t-76 31.5z
M647.5 355q-47.5 0 -81 33.5t-33.5 81t33.5 81t81 33.5t81.5 -33.5t34 -81t-34 -81t-81.5 -33.5zM648 577q-44 0 -75.5 -31.5t-31.5 -76t31.5 -76t75.5 -31.5t75.5 31.5t31.5 76t-31.5 76t-75.5 31.5zM350 493zM313 493.5q0 15.5 11 26t26 10.5t25.5 -10.5t10.5 -26
t-10.5 -26t-25.5 -10.5t-26 10.5t-11 26zM678 521zM641 521q0 15 11 26t26 11t26 -11t11 -26t-11 -25.5t-26 -10.5t-26 10.5t-11 25.5zM831 329q-23 0 -39 19.5t-16 46.5t16 46.5t39 19.5t39 -19.5t16 -46.5t-16 -46.5t-39 -19.5zM831.5 453q-19.5 0 -33.5 -17t-14 -41
t14 -41t33.5 -17t33 17t13.5 41t-13.5 41t-33 17zM790 636zM767 635.5q0 9.5 7 16.5t16.5 7t16.5 -7t7 -16.5t-7 -16.5t-16.5 -7t-16.5 7t-7 16.5zM828 785q-1 -1 -2 -2.5t-4.5 -4.5t-7 -4.5t-8.5 -1t-10 3.5q-1 2 -3 5.5t-4 14.5t3 19q2 3 6 8t14 12t19 7q21 3 44 -7
q2 -1 4.5 -2t9.5 -6t12 -10.5t9.5 -15t3.5 -19.5q-1 0 0 -4.5t-2 -13.5t-7.5 -18t-17 -18.5t-30.5 -15.5q-40 -23 -45 -43q-10 -15 -15 10q15 32 36 48l3 3l10 10q7 7 12 12.5t9 11t4 7.5l3 8v23q-9 18 -18 18l-22 -1q-1 0 -2.5 -1t-3 -5t-0.5 -9v-19zM805 663q-7 0 -10 16
v1q16 32 37 48q39 35 37 43v1l4 7v23q-9 17 -17 17l-21 -1q-9 -3 -6 -14v-20q-10 -13 -21 -13q-7 0 -13 4v1q-1 1 -3 5.5t-4 15t3 19.5q18 27 39 27h1l7 1h1q19 0 36 -8q5 -2 12 -6t18 -18t11 -30v-5q0 -4 -2.5 -13.5t-8 -18.5t-18 -18.5t-29.5 -15.5q-41 -26 -45 -42v-1
q-2 -5 -8 -5zM798 679q3 -13 7 -13q3 0 6 3q5 21 46 44q17 6 29 15.5t17 18t7.5 17.5t2.5 12v6q1 16 -9.5 29t-18 17t-11.5 6q-16 7 -35 7h-8h-1q-16 0 -36 -26q-10 -19 3 -38q5 -4 11 -4q10 0 18 12l1 19q-4 12 7 17h22q10 0 19 -18v-1v-24l-3 -7q0 -10 -39 -45
q-19 -15 -35 -47zM259 322.5q0 -6.5 -10.5 -11.5t-25 -5t-25 5t-10.5 11.5t10.5 11t25 4.5t25 -4.5t10.5 -11zM786 354.5q0 -6.5 -10.5 -11t-25 -4.5t-25 4.5t-10.5 11t10.5 11.5t25 5t25 -5t10.5 -11.5z" />
    <glyph glyph-name="uniE606" unicode="&#xe606;" 
d="M393 680q-3 2 -8 8t-15 20.5t-16 29.5t-5 34t12 35q11 15 30 15h1q27 0 53 -37q47 -75 49 -83l-6 -2q-2 7 -48 81q-25 34 -48 34h-1q-15 0 -24 -12q-11 -14 -11.5 -32t5 -31.5t15 -28t14.5 -19.5l7 -7zM308 134q-7 0 -15.5 1t-23 8t-26.5 18t-24 33.5t-19 53.5
q-5 27 -11 68t-13 120t-2 113v4q1 4 2 11t3 16t6.5 19.5t10.5 20.5t16 19.5t22 16.5q63 35 77 31l102 -2v-6l-103 2q-11 3 -73 -31q-15 -9 -26.5 -23t-17 -26.5t-8.5 -26t-3.5 -18.5t-0.5 -8q-5 -33 2 -112.5t13.5 -122t10.5 -64.5q7 -32 20 -55t25.5 -33t27.5 -15t21 -5.5
t10 0.5l77 5q87 3 369 48q69 3 91 35q13 19 8 40l-24 243q-4 28 -11.5 50t-15.5 33t-17 18t-12.5 8.5t-5.5 1.5q-65 27 -164 37l-5 1l3 5q9 15 16.5 46t10 49.5t3.5 24.5q2 35 -13 44q-5 4 -12 3t-11 -2.5t-5 -1.5q-17 -8 -34 -27t-28.5 -38.5t-22 -41.5t-14.5 -32t-6 -14
l-6 2q3 10 9.5 24.5t21 44t35.5 54t42 34.5q20 10 35 1q18 -12 16 -51q-9 -80 -29 -118q98 -12 160 -37q2 0 6.5 -1.5t14 -9t17.5 -19t16.5 -35t12.5 -52.5l24 -243q0 -1 1 -6.5t-1.5 -17t-9.5 -21.5q-24 -34 -95 -38q-17 -3 -76.5 -12t-155 -21.5t-137.5 -13.5l-77 -6h-4z
M383 638l-6 4q10 12 20 11q8 -1 12 -12l-7 -2q-2 6 -6 7q-6 1 -13 -8zM706 598l-5 4q10 12 20 10q7 -1 11 -11l-6 -3q-3 7 -6 7q-6 1 -14 -7zM329 378q-8 0 -8 7q-1 8 7 9l204 19q8 1 8.5 -7t-7.5 -9zM817 392l-153 12q-8 0 -7 8q0 8 8 7l153 -11q8 -1 7 -8q0 -8 -8 -8z
M382 142l-1 1q-3 1 -2 4l20 56q-14 10 -16 24q-3 15 8 30v8q-14 13 -6 29l-2 21l-29 65q-2 3 1 4.5t5 -1.5l29 -66l3 -24v-1q-7 -13 5 -23l1 -1v-13l-1 -1q-10 -11 -7 -26q1 -12 15 -21l2 -1l-21 -61q-1 -3 -4 -3zM476 150h-2q-2 2 -1 5q7 11 6 39q-1 18 -24 38l-1 1v16
l18 27q8 10 6 20q-3 14 -16 20l-2 1v23l1 1q6 8 22 55q1 4 4 3t2 -5q-15 -46 -22 -56v-17q15 -10 18 -24q2 -13 -8 -25l-16 -25v-11q23 -23 24 -42q2 -30 -6 -42q-1 -2 -3 -2zM765 191q-2 0 -3 1q-13 20 0 54v15q-22 13 -44 35l-1 1l1 22q8 14 -2 25l-43 44l5 18q1 3 4.5 2
t2.5 -4l-4 -14l40 -41q13 -15 4 -32l-1 -17q22 -23 43 -34l1 -1v-21q-11 -33 0 -48q2 -2 -1 -4q-1 -1 -2 -1zM829 207q-3 0 -3.5 2.5t1.5 4.5q3 3 6 25q-9 9 -2 26l-1 14v1q3 8 -19 21l-1 1l-3 11v1q5 7 2 13.5t-5.5 9.5t-3.5 4l-1 1q-9 17 1 54q1 3 4.5 2t2.5 -4
q-10 -34 -2 -48q17 -15 9 -33l2 -7q24 -15 21 -28l1 -14l-1 -1q-6 -14 2 -20l1 -1v-2q-4 -31 -11 -33zM548 156q-3 0 -3 3l-8 175l1 1q3 2 7 4.5t16 8.5t24.5 8t31 -1.5t35.5 -15.5h1l27 -161q1 -3 -2.5 -3.5t-3.5 2.5l-27 157q-23 16 -48 15.5t-36 -6.5t-19 -12l8 -172
q0 -3 -4 -3zM190 31h-1q-14 3 -27 23t-17.5 32t-6.5 20q-5 20 0 41t14.5 35t23 28t19.5 18l10 8q3 2 5 -0.5t-1 -4.5t-9 -6.5t-18.5 -18t-22 -27t-14.5 -33t-1 -38.5q1 -5 6 -17.5t16.5 -31.5t23.5 -21q4 -1 3 -4q0 -3 -3 -3zM307 -68q-27 0 -90 3q-23 3 -40.5 8.5t-26 11
t-14 12.5t-6 9.5t-1.5 4.5q-3 11 3.5 21.5t19 17t19.5 9.5t11 5q13 4 26.5 5t22.5 -1t17.5 -5.5t11 -5.5t4.5 -3q3 -2 0.5 -4.5t-4.5 -0.5q-1 1 -4 2.5t-10.5 4.5t-16 5t-21 1.5t-24.5 -5.5q-6 -2 -15.5 -6t-22.5 -15.5t-10 -22.5q0 -2 1 -4.5t6 -8.5t13 -10.5t24 -9.5
t38 -8q94 -4 102 -2q22 4 31 21q11 21 -6 59q-2 4 -4.5 7.5t-11.5 15.5t-17 20t-20 14t-22 5q-4 -1 -4 3q0 3 3 3q14 2 29.5 -6.5t27.5 -23t17.5 -22.5t8.5 -13q18 -41 5 -66q-11 -19 -35 -24q-3 -1 -15 -1zM369 -33q-6 0 -8 1q-4 0 -3.5 3.5t3.5 3.5h1q3 0 10 -0.5t18 2.5
t18 9q10 9 9 24v19q-48 5 -70 -6q-3 -1 -4.5 2t1.5 5q27 12 77 6l3 -1v-24q0 -19 -11 -30q-15 -14 -44 -14zM506 -56h-1q-21 0 -38 16t-26 40t-12.5 35.5t-4.5 20.5q-6 32 -3 87q0 3 3 3q4 0 3 -4q-2 -53 3 -85q1 -4 2.5 -11.5t8 -25.5t14.5 -32t21.5 -25.5t28.5 -12.5
q28 3 40 16q13 14 10 41v1q-15 39 -39 53q-4 3 -9.5 10t-12.5 30t-4 52q1 3 4.5 2.5t2.5 -3.5q-3 -27 3.5 -49t11.5 -27.5t8 -8.5q12 -7 22.5 -22.5t14 -23.5t5.5 -12q3 -31 -12 -48q-16 -17 -44 -17zM527 54q-2 0 -3 2q-1 3 2 4l11 6q8 4 25 14t32 21t29.5 26t19.5 30
q2 3 5 1.5t2 -4.5q-8 -18 -26.5 -37t-41.5 -33t-34.5 -20.5t-18.5 -9.5h-2zM845 44q-34 0 -68 10q-34 9 -152 68q-3 2 -1.5 5t4.5 1q120 -60 151 -68q9 -2 25 -5.5t49 -2.5t50 14q24 34 -7 65q-4 5 -11.5 11t-32 14t-50.5 3q-28 -13 -72 -7q-42 8 -53 24q-2 3 0.5 5t4.5 -1
q10 -13 49 -21q35 -5 69 6q29 6 54.5 -2t33.5 -15t13 -12q10 -10 14.5 -22t4 -20.5t-3.5 -17t-5 -11t-3 -4.5q-22 -17 -63 -17zM392 256h-5q-3 0 -11.5 -2t-13 -5t-9 -9.5t0.5 -15.5q3 -2 7 -4.5t13.5 -6t17.5 -2.5v45z" />
    <glyph glyph-name="uniE607" unicode="&#xe607;" 
d="M426 527q-6 5 -14 12t-21 25t-12 33q1 18 21 30l6 1q22 -1 71 -66l-6 -4q-23 30 -40 45.5t-21.5 17t-5.5 0.5q-17 -10 -18 -25q-1 -13 11.5 -29.5t20.5 -23.5t12 -10zM385 161q-27 0 -48 15q-35 26 -42 89q-17 163 -14 192l1 7q1 6 5.5 16t14.5 20t30.5 18t49.5 10l62 6
l1 -8l-62 -6q-27 -1 -46.5 -8.5t-28.5 -15.5t-14 -18t-5.5 -14.5t-0.5 -7.5q-1 -13 2.5 -62t7 -85t4.5 -44q7 -59 39 -83q23 -16 55 -13q101 -4 332 40q39 4 55 25q6 9 8 20t1.5 16.5t-1.5 6.5l-7 167q3 54 -21 77q-9 9 -20.5 12.5t-17.5 4t-7 -0.5q-38 5 -161 0h-4v4
q-1 35 -7 58.5t-9 29t-5 6.5q-15 12 -26 7q-15 -7 -21.5 -42t-6.5 -65h-7q0 12 0.5 29t9 47.5t22.5 36.5q14 7 33 -8q3 -1 6.5 -6t10 -29.5t7.5 -59.5q123 4 158 -1q2 0 8 0.5t19 -4t23 -13.5q27 -26 24 -83l6 -166q1 -1 1.5 -7.5t-1.5 -18.5t-9 -22q-18 -24 -61 -28
q-21 -5 -66 -12.5t-133 -18.5t-133 -9q0 -1 -11 -1zM452 434h-5l2 7q10 -3 13 7l7 -2q-4 -12 -17 -12zM627 452q-11 0 -16 10l6 3l-3 -2l3 2q6 -9 15 -5l3 -6q-4 -2 -8 -2zM351 349h-10q-5 0 -5 4.5t5 4.5h8q4 5 10 9t19 11t26.5 10.5t32 3t36.5 -8.5q5 -1 3 -5.5t-6 -2.5
q-18 7 -37 7t-31.5 -4t-24.5 -11t-16 -10.5t-7 -6.5l-1 -1h-2zM730 375l-1 1q-3 2 -8 5t-17.5 8t-26 7t-32 -1t-34.5 -13q-5 -2 -7 2t2 6q20 13 42 15.5t40 -2.5t28 -9.5t17 -8.5l7 1q5 1 6 -4q0 -5 -4 -6zM508 238q-14 0 -29 3q-3 0 -2.5 2.5t3.5 1.5q4 0 10 -1t23.5 -0.5
t31.5 3.5t29.5 13.5t24.5 27.5q1 2 3 1t1 -3q-23 -48 -95 -48zM515 86q-11 0 -13 1q-28 2 -40 20q-15 25 -1 58l5 -1q-11 -35 1 -54q10 -16 36 -19q3 2 16 0t37.5 6.5t42.5 26.5q10 11 -11 31q-5 2 -12 3.5t-22.5 -3.5t-26.5 -20l-4 3q12 16 30 21t26 3.5t12 -3.5
q15 -14 15 -26q1 -8 -4 -13q-33 -34 -87 -34zM586 92q-7 0 -15 1v5q15 -3 26 0t17 5.5t10.5 7.5t5.5 7l2 4q11 32 -18 58l3 4l3 -4q3 -2 7.5 -8.5t7 -13.5t4 -17t-2.5 -21l-4 -7q-2 -5 -15 -13t-31 -8zM510 -76q-2 0 -5 1q-10 2 -18.5 13.5t-14 26.5t-7.5 23t-3 13
q-11 36 3 104l5 -1q-1 -6 -3 -19.5t-4 -41t3 -41.5q1 -2 2 -7t5 -17t8 -21t11 -17.5t14 -10.5q1 1 5.5 0t12.5 3t13 12q-3 64 -6 71l5 1q2 -7 6 -72v-1v-1q-12 -18 -32 -18zM574 6q-14 10 -28.5 10t-20 -3.5t-8.5 -6.5l-3 3q4 4 9 7.5t21.5 4t32.5 -10.5zM598 -64h-22
q-8 0 -12 6q-15 19 -7 72l5 -1q-5 -54 5 -68q4 -4 9 -4h21q23 10 31 67q-1 73 -14 92l4 3q15 -22 15 -95q-4 -28 -13 -46t-13.5 -21.5t-7.5 -4.5h-1zM113 828h24q18 0 18 -16v-111q0 -9 -4 -13q-5 -5 -12 -5h-23q-19 0 -19 17v112q0 8 5 12q4 4 11 4zM119 700h16q3 0 4 1v4
v102q0 5 -5 5h-15q-6 0 -6 -5v-102q0 -5 6 -5zM218 681v16h7q10 0 10 10v105h-70v16h92v-16h-6v-108q0 -10 -6 -16q-7 -7 -18 -7h-9zM182 801h23q18 0 18 -17v-73q0 -9 -5 -13q-4 -4 -11 -4h-24q-5 0 -8 1q-5 1 -8 8q-2 2 -2 6v76q0 8 5 12q4 4 12 4zM207 716v64q0 5 -5 5
h-15q-6 0 -6 -5v-64q0 -6 6 -6h14q6 0 6 6zM281 828h24q18 0 18 -16v-111q0 -9 -5 -13q-4 -5 -12 -5h-23q-18 0 -18 17v112q0 8 4 12t12 4zM287 700h16q2 0 3 1t1 4v102q0 5 -5 5h-16q-5 0 -5 -5v-102q0 -5 6 -5zM385 681v16h7q10 0 10 10v105h-69v16h92v-16h-7v-108
q0 -10 -6 -16q-6 -7 -18 -7h-9zM349 801h24q18 0 18 -17v-73q0 -9 -5 -13t-12 -4h-23q-5 0 -8 1q-6 1 -9 8q-1 2 -1 6v76q0 8 4 12q5 4 12 4zM375 716v64q0 5 -5 5h-16q-5 0 -5 -5v-64q0 -6 6 -6h13q7 0 7 6zM456 743q1 12 7 19q5 5 13 8q6 2 11 2q7 0 15 -3l31 -12
q3 -1 7 -1q9 0 9 8v2h21q-2 -12 -8 -19q-9 -10 -24 -10q-7 0 -16 4l-27 11q-4 1 -9 1q-6 0 -8 -4q-1 -1 -2 -6h-20zM599 682v16q6 0 8 3q3 4 4 11l7 104h17l-8 -107q-2 -15 -12 -23q-6 -4 -16 -4zM645 681v16h17q4 0 7 2.5t3 6.5v123h17v-126q0 -8 -6 -15t-17 -7h-21z
M724 816h16l7 -102q1 -6 1 -8q3 -6 6 -7q2 -1 6 -1v-16q-13 0 -21 9q-5 5 -6 13q-1 2 -1 9zM767 682v15q3 0 3 2q1 0 1 5l1 88h15l-1 -92q0 -9 -7 -14q-5 -4 -12 -4zM769 800v16h24v12h16v-12h22v-16h-22v-119h-16v119h-24zM816 681v111h13v-111h-13zM841 709v16h35v31h-35
v16h35v28h-35v16h9v12h16v-12h36v12h16v-12h9v-16h-35v-28h35v-16h-35v-31h35v-16h-35v-28h-16v28h-35zM764 269.5q0 -8.5 -13 -14.5t-31.5 -6t-31.5 6t-13 14.5t13 14t31.5 5.5t31.5 -5.5t13 -14zM424 238.5q0 -8.5 -13.5 -14.5t-32 -6t-31.5 6t-13 14.5t13 14t31.5 5.5
t32 -5.5t13.5 -14z" />
    <glyph glyph-name="uniE608" unicode="&#xe608;" 
d="M932 765l-75 65l-16 -8q-46 -22 -93 -31t-81 -7.5t-66.5 10t-48 15t-26.5 13.5l-14 7l-13 -7q-12 -7 -27 -13.5t-48 -15t-67 -10t-81 7.5t-92 31l-16 8l-75 -65l9 -19q49 -99 49 -165q0 -14 -11 -67q-22 -115 -22 -179q0 -188 149 -239q178 -62 223 -127l22 -32l22 32
q45 65 224 127q149 51 149 239q0 64 -23 179v1q-10 53 -10 66q0 66 49 165zM870 749q-46 -99 -46 -168q0 -18 12 -76v-1q22 -110 22 -169q0 -78 -28.5 -125.5t-87.5 -67.5q-161 -55 -227 -119l-3 -4l-3 4q-66 64 -226 119q-59 20 -87.5 67.5t-28.5 125.5q0 59 22 169
q11 59 11 77q0 69 -45 168l-1 3l22 20l2 -1q55 -25 110 -33t98.5 -1.5t72 15.5t51.5 20l2 1l2 -1q24 -11 52 -20t72 -15.5t99 1.5t109 33l3 1l22 -20zM446 293q-43 43 -66 86v-205h-57v187q-28 -62 -78 -121v64q48 78 71 181h-64v45h71v167h57v-167h64v-45h-64
q27 -81 66 -131v-61zM270 553q-9 28 -18 92q-3 13 -3 20h42q4 -64 18 -112h-39zM389 553q11 44 18 110h41q-4 -71 -20 -110h-39zM464 631v39h115v29h68v-29h126v-39h-126v-34h112v-42h-112v-36h135v-39h-327v39h124v36h-106v42h106v34h-115zM473 174v279h282v-206
q2 -71 -69 -69h-48v44h21q32 -3 29 25v16h-148v-89h-67zM540 409v-34h148v34h-148zM540 336v-37h148v37h-148z" />
    <glyph glyph-name="uniE609" unicode="&#xe609;" 
d="M637 495v1v-2q3 -46 -21.5 -85t-67.5 -55q-53 -20 -105 4t-72 77q-2 5 -3 11q-9 37 1.5 69.5t30.5 47.5v-1q1 -2 1 -4.5t0.5 -6t1.5 -8t2 -9.5q2 2 6.5 5t6.5 4q1 6 2.5 13t2.5 12l1 4q10 5 31 15t29 14l6 -2l5 -2q5 -8 13 -38t14 -45q2 2 5 4.5t4.5 4.5t2.5 5
q0 17 -5.5 49.5t-6.5 44.5q5 2 16 8t19.5 11t18 11.5t14 13t3.5 12.5q-19 8 -68 -23q-10 -6 -13 -8q-4 -2 -6 -1.5t-4.5 3.5t-4.5 4q-24 18 -25 19q-16 13 -41 29q-2 1 -10 0.5t-10 -2.5q2 -1 26.5 -25.5t31.5 -35.5q2 -3 2 -5t-1 -5t-1 -5q-55 -37 -58 -36l-28 9
q-2 -1 -4 -3l-3 -3l-2 -1q10 -6 20 -16q-16 -15 -27 -33q-13 -22 -17 -41q-12 -44 4 -87q22 -58 77.5 -83t112.5 -4q52 19 78 67t15 101v1v1zM415 529q-18 -29 -16 -63q4 -43 37 -72t76 -25q30 2 53.5 19t35.5 43q-30 -37 -76 -40q-44 -3 -77.5 25.5t-36.5 72.5q-2 21 4 40z
M451 522l-1 -1q-11 -19 -10 -42q2 -30 25 -49.5t53 -17.5q42 3 60 41q1 1 0.5 1t-0.5 -1q-21 -23 -51 -26q-31 -2 -54 18t-25 51q-1 12 3 25v1zM819 536q-6 19 -19 43q-12 20 -20 42q-8 18 -22 68q-8 28 -20 42t-33 25q-18 10 -45 17q-22 7 -43 16q-18 7 -64 33
q-25 14 -45 15.5t-41 -5.5q-19 -7 -42 -20q-21 -11 -42 -20q-18 -7 -69 -21q-28 -8 -42 -20t-25 -34q-9 -18 -17 -44q-7 -22 -15 -44q-8 -18 -34 -63q-14 -25 -15.5 -45.5t6.5 -40.5q6 -19 19 -43q11 -20 20 -42q7 -18 21 -68q8 -28 20 -42.5t34 -25.5q11 -5 24 -10
l-66 -272l15 3l64 265q3 -1 7 -2l2 -1l-63 -261l133 23l23 -46l53 221q5 -1 10 -1l-57 -232l8 -16l61 249q10 1 23 5h1l52 -155l6 16l-47 143l8 4l45 -134l19 48l135 -12l-52 155l8 4l53 -160l15 -1l-55 167q19 12 33 40q9 18 17 44q6 22 15 43q7 19 33 64q14 25 16 45
t-6 41zM684 338v0l-3 -3l-1 -1l-1 -1v0l-2 -2v0v-1l-3 -2v0v0v-1h-1l-7 -7q-1 -1 -3 -2l-2 -2l-2 -2l-2 -2q-2 -1 -3 -2l-2 -2q-1 -1 -3 -2l-2 -1q-1 -1 -3 -2l-2 -2q-2 -1 -3 -2l-2 -1l-3 -2l-2 -2q-3 -1 -4 -2l-1 -1l-4 -2l-2 -1q-2 -1 -3 -2l-2 -1l-4 -2l-1 -1
q-3 -1 -4 -2h-2l-4 -2l-1 -1q-3 -1 -5 -2l-1 -1q-2 0 -4 -1l-2 -1l-4 -2h-2l-4 -2h-1q-3 -1 -5 -2h-1q-3 -1 -5 -1l-1 -1q-3 0 -6 -1t-5 -2h-1q-3 0 -6 -1h-1q-2 -1 -5 -1h-1q-4 -1 -6 -1v0q-3 -1 -6 -1q-3 -1 -6 -1v0h-4v0v0v0v0h-1v0q-2 0 -4 -1v0v0v0h-1v0v0v0h-1v0v0v0
v0h-1v0v0v0v0v0h-1v0v0v0v0h-1v0v0v0v0v0h-1v0v0v0v0v0h-1v0v0v0h-1v0v0h-1v0v0v0v0v0h-1h-2v0h-1h-4h-7h-13v1h-6h-1q-3 0 -5 1h-1q-3 0 -6 1h-1q-3 0 -5 1h-1q-3 0 -5 1h-1q-2 0 -5 1h-1l-6 2h-1q-1 0 -4 1l-2 1q-2 0 -4 1l-2 1q-2 0 -4 1h-2l-4 2l-2 1q-2 0 -4 1l-2 1
q-2 1 -4 1l-2 1q-1 1 -3 2l-3 1q-2 1 -3 1l-2 1l-3 2l-3 1l-3 2l-2 1l-3 2q-1 0 -3 1l-2 2q-1 1 -3 2l-2 1q-2 1 -3 2l-2 1q-2 2 -4 3h-1l-3 3q-5 3 -8 6h-1v1l-4 2l-1 2h-1v0l-1 1v0v1h-1q-1 1 -3 2v1q-40 35 -63 85t-23 105q0 106 74.5 180.5t180 74.5t180 -74.5
t74.5 -180.5q0 -98 -66 -171z" />
    <glyph glyph-name="uniE60A" unicode="&#xe60a;" 
d="M510 -57q-8 0 -14 3q-52 26 -128 87.5t-146 139.5q-80 88 -125 172q-52 98 -52 180q0 135 96 211q36 29 83.5 45t94.5 16q59 0 120 -35q37 -22 71 -54q34 32 71 54q61 35 120 35q47 0 94.5 -16t83.5 -45q96 -76 96 -211q0 -82 -52 -180q-45 -84 -125 -172
q-70 -78 -146 -139.5t-128 -87.5q-6 -3 -14 -3zM319 734z" />
    <glyph glyph-name="uniE60B" unicode="&#xe60b;" 
d="M510 -57q-8 0 -14 3q-52 26 -128 87.5t-146 139.5q-80 88 -125 172q-52 98 -52 180q0 135 96 211q36 29 83.5 45t94.5 16q59 0 120 -35q37 -22 71 -54q34 32 71 54q61 35 120 35q47 0 94.5 -16t83.5 -45q96 -76 96 -211q0 -82 -52 -180q-45 -84 -125 -172
q-70 -78 -146 -139.5t-128 -87.5q-6 -3 -14 -3zM319 734q-34 0 -69 -11.5t-68 -35t-53.5 -65.5t-20.5 -97t30 -120.5t76 -124.5t101 -114t105.5 -94.5t89.5 -61.5q39 22 89.5 61.5t105.5 94.5t101 114t76 124.5t30 120.5t-20.5 97t-53.5 65.5t-68 35t-69 11.5
q-54 0 -114 -44q-31 -22 -52 -47l-1 -1q-10 -11 -24.5 -11t-23.5 11l-1 1q-4 4 -10.5 11t-24.5 22.5t-36.5 27.5t-44.5 21t-50 9zM319 734z" />
    <glyph glyph-name="uniE60C" unicode="&#xe60c;" 
d="M863 -126h-715q-60 0 -101.5 42t-41.5 101v716q0 60 43.5 110t101.5 50h400v-73h-400q-30 0 -51.5 -21.5t-21.5 -51.5l-1 -730q0 -29 21 -50t51 -21l729 1q30 0 51.5 21.5t21.5 51.5v400h73v-400q0 -58 -49.5 -102t-110.5 -44zM986.5 565q-15.5 0 -26 11t-10.5 26l-1 173
l-553 -527q-11 -11 -26.5 -11t-26.5 10.5t-11 25t11 25.5l549 523l-160 -1q-15 0 -25.5 10.5t-10.5 25.5t10.5 26t25.5 11h254q15 0 26 -10.5t11 -25.5v-255q0 -15 -10.5 -26t-26 -11z" />
    <glyph glyph-name="uniE60D" unicode="&#xe60d;" 
d="M511 882q-136 0 -251 -57.5t-181.5 -156t-66.5 -214.5q0 -97 50 -184.5t142 -149.5q13 -9 27.5 -6t22.5 15t5.5 26.5t-15.5 23.5q-77 52 -119 124t-42 151q0 97 57.5 179t156 130t214.5 48t214.5 -48t156 -130t57.5 -178.5t-57.5 -178.5t-156 -130t-214.5 -48h-3l-3 -1
q-13 2 -24.5 -4t-15.5 -19q-10 -28 -105 -82q19 65 4 88q-12 18 -34 18q-14 0 -24.5 -10.5t-10.5 -25.5q0 -9 5 -18q-7 -36 -37 -111q-9 -22 8 -39q10 -10 25 -10q7 0 14 3q32 14 64.5 31t78.5 49t66 60q134 2 247 59.5t178.5 155.5t65.5 212q0 116 -67 214.5t-182 156
t-250 57.5zM320 522q-27 0 -46 -19t-19 -45.5t19 -45.5t45.5 -19t45.5 19t19 45.5t-19 45.5t-45 19zM512 522q-27 0 -45.5 -19t-18.5 -45.5t18.5 -45.5t45 -19t45.5 19t19 45.5t-19 45.5t-45 19zM704 522q-26 0 -45 -19t-19 -45.5t19 -45.5t45.5 -19t45 19t18.5 45.5
t-18.5 45.5t-45.5 19z" />
    <glyph glyph-name="uniE60E" unicode="&#xe60e;" 
d="M518 687l16 -56l43 56h-59zM752 341l51 -38l16 70zM400 32l-49 -62h65zM144 303l59 35l-40 35zM894 99l-46 -43q2 -3 5.5 -9t10 -20.5t10.5 -27t4 -25t-7 -18.5q-20 -15 -114 55q29 29 54 61q90 112 123 241.5t3.5 243.5t-116 182.5t-204 71.5t-236 -58.5t-208.5 -173.5
q0 -1 -1.5 -3t-2.5 -2q-48 76 -25 97q14 12 32 12t29 -6l12 -6l56 50q-3 3 -8.5 8t-23.5 16t-36 16.5t-44 3.5t-49 -16q-26 -20 -32.5 -50t4.5 -63t23.5 -58t29.5 -50q-72 -109 -94.5 -227.5t9 -222t111.5 -167.5q81 -64 191 -70.5t217 42.5l-40 72q-83 -34 -167 -26.5
t-147 57.5q-70 56 -94 149t3 198.5t100 197.5t170 142.5t193 48t166.5 -59t94.5 -149.5t-3 -198.5t-100 -197.5q-23 -29 -50 -54l6 87l-185 -57l161 -290l8 110q17 -14 35 -27t45.5 -31t53.5 -31t53 -23t50.5 -9.5t39.5 11.5q22 17 23.5 53.5t-13 77t-32.5 78t-33 63
t-15 24.5zM383 265h-105q14 12 26.5 21t19.5 14q27 17 46 31.5t30 24.5t19 22t13 26q5 15 4.5 28t-7 22.5t-19.5 15t-32 5.5q-17 0 -33.5 -5.5t-30.5 -16t-26 -25.5t-20 -33h46q4 10 10 18t13 13.5t14 8.5t14 3q16 0 22 -9t0 -24q-4 -10 -9.5 -19t-15.5 -17.5t-24.5 -19
t-35.5 -23.5q-23 -14 -39.5 -27t-27.5 -23q-21 -20 -32 -52h166zM534 224l19 54h31l14 40h-31l55 155h-35l-163 -160l-13 -35h98l-19 -54h44zM474 318l76 77l-27 -77h-49zM676 504l-65 -179h22l34 93q25 21 43 21q13 0 16 -7t-3 -23l-30 -84h23l31 85q17 48 -27 48
q-21 0 -45 -20l23 66h-22z" />
    <glyph glyph-name="uniE60F" unicode="&#xe60f;" 
d="M767 704h-64v-63v-290l-64 33l-64 -33v290v63h-383v28v4q0 3 1.5 9t5 10.5t11 8.5t18.5 4h667v64h-704q-2 1 -6.5 0.5t-15 -3t-18.5 -8.5t-15.5 -19.5t-7.5 -32.5v-768q-1 -3 -0.5 -7.5t3 -15.5t8 -19.5t19 -15t31.5 -6.5h706v704v63h-128zM831 0h-606q0 1 -3 0.5
t-8.5 1.5t-10 4.5t-8 10t-3.5 18.5v606h319v-448l129 127l127 -128v448h64v-640z" />
    <glyph glyph-name="uniE610" unicode="&#xe610;" 
d="M648 548q-40 0 -58 -72q-11 -49 -11 -92q0 -41 11 -86q18 -72 58 -72q33 0 41 21q17 40 23.5 68.5t6.5 68.5q0 88 -17 126t-54 38zM512 896q-250 0 -381 -131t-131 -381t131 -381t381 -131t381 131t131 381t-131 381t-381 131zM406 169q-7 -2 -20 -2h-20q-7 -1 -12.5 3.5
t-5.5 8.5q3 44 3 46v306l-58 -16h-5q-12 0 -20.5 9.5t-8.5 23.5q0 26 26 33l102 31q31 2 31 -32v-362l2 -37q-2 -8 -14 -12zM751 224q-38 -68 -103 -68q-62 0 -101 69q-20 36 -29 71t-9 88q0 100 38 167t101 67t102 -67q38 -68 38 -167q0 -54 -8.5 -89t-28.5 -71z" />
    <glyph glyph-name="uniE611" unicode="&#xe611;" 
d="M510.5 809q-115.5 0 -213.5 -56.5t-155 -154.5t-57 -214t57 -214t155 -154.5t213.5 -56.5t213.5 56.5t155 154.5t57 214t-57 214t-155 154.5t-213.5 56.5zM717 230q11 -11 11 -26.5t-11 -26t-26.5 -10.5t-25.5 11l-152 151l-151 -151q-11 -11 -26.5 -11t-26.5 10.5
t-11 26t11 26.5l152 152l-152 151q-11 11 -11 26.5t11 26.5t26.5 11t26.5 -11l151 -152l152 152q10 11 25.5 11t26.5 -11t11 -26.5t-11 -26.5l-151 -151z" />
    <glyph glyph-name="uniE612" unicode="&#xe612;" 
d="M426.5 515q86.5 0 166.5 18.5t131 53.5v-86h64v187q0 53 -54.5 93.5t-135.5 60t-171.5 19.5t-171.5 -19.5t-136 -60t-55 -93.5v-509q0 -54 55 -94.5t135.5 -59.5t171.5 -19v64q-66 0 -123.5 10.5t-94.5 27t-58 35t-21 36.5v153q51 -35 131 -53.5t166 -18.5v65
q-66 0 -123.5 10.5t-94.5 26.5t-58 35t-21 36v153q51 -34 131 -52.5t166.5 -18.5zM426 796q66 0 124 -10.5t95 -26.5t58 -35t21 -36t-21 -36t-58 -35t-95 -26.5t-124 -10.5t-123.5 10.5t-94.5 26.5t-58 35t-21 36t21 36t58 35t94.5 26.5t123.5 10.5zM715.5 480
q-113.5 0 -178.5 -36.5t-65 -86.5v-327q0 -49 65 -86t179 -37q113 0 178 36.5t66 85.5v328q0 50 -65.5 86.5t-179 36.5zM715.5 415q33.5 0 64 -4t51 -11t35.5 -15t22 -15t7 -12.5t-7 -13t-22 -15.5t-35.5 -14.5t-51 -11t-64 -4.5t-63.5 4.5t-51 11t-36 14.5t-22 15.5t-7 13
t7 12.5t22 15t36 15t51 11t63.5 4zM715.5 -28q-33.5 0 -63.5 4.5t-51 11t-36 14.5t-22 15t-7 13v78q68 -37 179.5 -37t179.5 37v-78q0 -6 -7 -13t-22 -15t-35.5 -14.5t-51 -11t-64 -4.5zM715.5 136q-33.5 0 -63.5 4t-51 11t-36 15t-22 15t-7 13v78q68 -37 179.5 -37
t179.5 37v-78q0 -6 -7 -13t-22 -15t-35.5 -15t-51 -11t-64 -4z" />
    <glyph glyph-name="uniE613" unicode="&#xe613;" horiz-adv-x="1025" 
d="M510 512q30 48 42 48q19 -1 27 -15.5t4 -32.5h56v64h-129v-64zM833 832h-517q-53 0 -91 -37.5t-38 -90.5v-640q0 -15 -14 -27t-32.5 -19.5t-39.5 -21t-31 -27.5q-5 -6 -5 -13.5t7 -14t23 -6.5h221h517q53 0 91 38t38 91v640q0 53 -38 90.5t-91 37.5zM809 192h-104v-61
q-2 -21 -4 -29.5t-8.5 -18t-18.5 -13.5q-5 -2 -9 -3t-10 -2t-10.5 -1t-15.5 -0.5t-19 0t-26 0.5h-34q-13 0 -20.5 12.5t-7.5 28.5q2 23 32 23h85v64h-154q-24 2 -26 34q2 28 26 30h154l35 64h-137q-21 2 -24 34q0 28 24 30h207q9 0 15.5 -9.5t7.5 -20.5q2 -14 -23 -34
l-39 -64h104q21 -2 24 -30q-3 -32 -24 -34zM809 512q11 -1 17.5 -11t6.5 -25q-5 -26 -29 -28h-258q-17 -18 -51.5 -43t-49.5 -39v-272q-2 -28 -25 -30q-15 0 -26.5 7.5t-12.5 20.5v224q-16 -14 -25 -16t-21 8q-11 14 -9 30t16 28q25 19 51.5 40t39.5 31.5t14 10.5h-107
q-22 2 -24 28q0 34 22 36h125q-17 4 -17 33v31h-104q-24 2 -26 30q0 32 24 34h105v43q3 19 30 21q35 0 37 -19v-45h127v41q2 21 32 23q32 -2 34 -23v-41h106q22 -2 22 -34q-3 -28 -24 -30h-105v-44q0 -17 -13 -20h118z" />
    <glyph glyph-name="uniE614" unicode="&#xe614;" 
d="M512 806q-115 0 -212 -56.5t-153.5 -153.5t-56.5 -212t56.5 -212t153.5 -153.5t212 -56.5t212 56.5t153.5 153.5t56.5 212t-56.5 212t-153.5 153.5t-212 56.5zM754 493l-273 -272q-9 -10 -22 -11.5t-24 5.5q-4 2 -8 6l-157 157q-11 11 -11 26.5t11 27t27 11.5t27 -11
l130 -130l246 245q11 12 27 12t27 -11.5t11 -27t-11 -27.5z" />
    <glyph glyph-name="uniE615" unicode="&#xe615;" 
d="M442 221l-2 -2q-18 -9 -35 1t-17 30v338q0 20 17 30t35 1q0 -1 2 -2l220 -168q16 -11 16 -29t-16 -31l-55 -42l-110 -84z" />
    <glyph glyph-name="uniE616" unicode="&#xe616;" 
d="M512 -96q-98 0 -186.5 37.5t-153 101t-102.5 151t-38 183.5v455q0 13 9.5 22.5t22.5 9.5h896q13 0 22.5 -9.5t9.5 -22.5v-455q0 -96 -38 -183.5t-102.5 -151t-153 -101t-186.5 -37.5zM96 800v-423q0 -111 55.5 -205t151.5 -149t209 -55t209 55t151.5 149t55.5 205v423
h-832zM448 256q-13 0 -23 9l-128 128q-9 10 -9 23t9.5 22.5t22.5 9.5t23 -9l105 -106l233 234q10 9 23 9t22.5 -9.5t9.5 -22.5t-9 -23l-256 -256q-10 -9 -23 -9z" />
    <glyph glyph-name="uniE617" unicode="&#xe617;" 
d="M742 -96h-460q-37 0 -63.5 28.5t-26.5 68.5v766q0 40 26.5 68.5t63.5 28.5h460q37 0 63.5 -28.5t26.5 -68.5v-766q0 -40 -26.5 -68.5t-63.5 -28.5zM282 800q-10 0 -18 -9.5t-8 -23.5v-766q0 -14 7.5 -23.5t18.5 -9.5h460q11 0 18.5 9.5t7.5 23.5v766q0 14 -7.5 23.5
t-18.5 9.5h-460zM576 32h-128q-13 0 -22.5 9.5t-9.5 22.5t9.5 22.5t22.5 9.5h128q13 0 22.5 -9.5t9.5 -22.5t-9.5 -22.5t-22.5 -9.5z" />
    <glyph glyph-name="uniE618" unicode="&#xe618;" 
d="M512 -96q-130 0 -240.5 64.5t-175 175t-64.5 240.5t64.5 240.5t175 175t240.5 64.5t240.5 -64.5t175 -175t64.5 -240.5t-64.5 -240.5t-175 -175t-240.5 -64.5zM512 800q-172 0 -294 -122t-122 -294t122 -294t294 -122t294 122t122 294t-122 294t-294 122zM672 288h-192
q-13 0 -22.5 9.5t-9.5 22.5v192q0 13 9.5 22.5t22.5 9.5t22.5 -9.5t9.5 -22.5v-160h160q13 0 22.5 -9.5t9.5 -22.5t-9.5 -22.5t-22.5 -9.5z" />
    <glyph glyph-name="uniE619" unicode="&#xe619;" 
d="M512 -96q-130 0 -240.5 64.5t-175 175t-64.5 240.5q0 13 9.5 22.5t22.5 9.5t22.5 -9.5t9.5 -22.5q0 -172 122 -294t294 -122t294 122t122 294t-122 294t-294 122q-125 0 -229 -68.5t-154 -183.5q-5 -13 -17.5 -17.5t-24.5 0.5t-17 17.5t1 24.5q56 132 176.5 211.5
t264.5 79.5q130 0 240.5 -64.5t175 -175t64.5 -240.5t-64.5 -240.5t-175 -175t-240.5 -64.5zM672 288h-192q-13 0 -22.5 9.5t-9.5 22.5v192q0 13 9.5 22.5t22.5 9.5t22.5 -9.5t9.5 -22.5v-160h160q13 0 22.5 -9.5t9.5 -22.5t-9.5 -22.5t-22.5 -9.5zM192 512h-128
q-13 0 -22.5 9.5t-9.5 22.5v128q0 13 9.5 22.5t22.5 9.5t22.5 -9.5t9.5 -22.5v-96h96q13 0 22.5 -9.5t9.5 -22.5t-9.5 -22.5t-22.5 -9.5z" />
    <glyph glyph-name="uniE61A" unicode="&#xe61a;" 
d="M896 -33h-768q-40 0 -68 28t-28 67v194q0 13 9.5 22.5t22.5 9.5h64q13 0 22.5 -9.5t9.5 -22.5t-9.5 -22.5t-22.5 -9.5h-32v-161q0 -14 9.5 -23t22.5 -9h768q13 0 22.5 9t9.5 23v161h-32q-13 0 -22.5 9.5t-9.5 22.5t9.5 22.5t22.5 9.5h64q13 0 22.5 -9.5t9.5 -22.5v-193
q0 -40 -28 -68t-68 -28zM896 480q-13 0 -22.5 9.5t-9.5 22.5t9.5 22.5t22.5 9.5h32v159q0 13 -9.5 22.5t-22.5 9.5h-768q-13 0 -22.5 -9.5t-9.5 -22.5v-159h32q13 0 22.5 -9.5t9.5 -22.5t-9.5 -22.5t-22.5 -9.5h-64q-13 0 -22.5 9.5t-9.5 22.5v191q0 40 28 68t68 28h768
q40 0 68 -28t28 -68v-191q0 -13 -9.5 -22.5t-22.5 -9.5h-64zM64 384h64h-64zM128 352h-64q-13 0 -22.5 9.5t-9.5 22.5t9.5 22.5t22.5 9.5h64q13 0 22.5 -9.5t9.5 -22.5t-9.5 -22.5t-22.5 -9.5zM896 384h64h-64zM960 352h-64q-13 0 -22.5 9.5t-9.5 22.5t9.5 22.5t22.5 9.5h64
q13 0 22.5 -9.5t9.5 -22.5t-9.5 -22.5t-22.5 -9.5zM269 224q-13 0 -22.5 9.5t-9.5 22.5v225q-11 2 -18.5 10.5t-7.5 20.5q0 13 9.5 22.5t22.5 9.5h26q13 0 22.5 -9.5t9.5 -22.5v-256q0 -13 -9.5 -22.5t-22.5 -9.5zM525 224h-128q-13 0 -22.5 9.5t-9.5 22.5v26q0 12 8 21
l115 128q9 10 22 10.5t23 -8.5t10.5 -22t-7.5 -23l-90 -100h79q13 0 22.5 -9.5t9.5 -22.5t-9.5 -22.5t-22.5 -9.5zM698 224h-52q-13 0 -22.5 9.5t-9.5 22.5t9.5 22.5t22.5 9.5h52q13 0 22.5 -9.5t9.5 -22.5t-9.5 -22.5t-22.5 -9.5zM691 378q-10 0 -19 6q-11 8 -12.5 21
t6.5 24l38 51h-64q-13 0 -22.5 9.5t-9.5 22.5t9.5 22.5t22.5 9.5h128q20 0 28.5 -17.5t-2.5 -33.5l-77 -103q-10 -12 -26 -12zM691 224q-13 0 -22.5 9.5t-9.5 22.5t9.5 22.5t22.5 9.5q19 0 32 13t13 31.5t-13 32t-32 13.5q-13 0 -22.5 9t-9.5 22.5t9.5 23t22.5 9.5
q45 0 77 -32t32 -77t-32 -77t-77 -32zM504 369q-14 0 -24 10q-9 10 -8.5 23t10.5 22q11 10 11 24q0 13 -9.5 22.5t-22.5 9.5t-22.5 -9.5t-9.5 -22.5t-9.5 -22.5t-22.5 -9.5t-22.5 9.5t-9.5 22.5q0 40 28 68t67.5 28t68 -28t28.5 -68q0 -43 -32 -71q-9 -8 -21 -8z" />
    <glyph glyph-name="uniE61B" unicode="&#xe61b;" 
d="M969 614q-18 -1 -26 -10.5t-8 -21.5v0v-560q0 -20 -13.5 -34t-34.5 -14h-744q-20 0 -33.5 14t-13.5 34v731q0 20 13.5 33.5t33.5 13.5h533q10 0 18.5 9.5t8.5 20.5q0 32 -28 32h-559q-36 0 -59 -23t-23 -59v-799q0 -31 23.5 -53t58.5 -22h799q32 0 58 23.5t26 57.5v595
q0 11 -7.5 21.5t-22.5 10.5zM396 288q11 -9 23.5 -8.5t21.5 8.5q50 49 179 177t234 231l104 104q10 13 8.5 24t-9.5 19q-7 8 -20.5 8t-21.5 -10l-519 -505q-10 -10 -10 -23.5t10 -24.5z" />
    <glyph glyph-name="uniE61C" unicode="&#xe61c;" 
d="M512 -96q-130 0 -240.5 64.5t-175 175t-64.5 240.5t64.5 240.5t175 175t240.5 64.5t240.5 -64.5t175 -175t64.5 -240.5t-64.5 -240.5t-175 -175t-240.5 -64.5zM512 800q-172 0 -294 -122t-122 -294t122 -294t294 -122t294 122t122 294t-122 294t-294 122zM512 288
q-73 0 -124.5 51.5t-51.5 124.5t51.5 124.5t124.5 51.5t124.5 -51.5t51.5 -124.5t-51.5 -124.5t-124.5 -51.5zM512 576q-46 0 -79 -33t-33 -79t33 -79t79 -33t79 33t33 79t-33 79t-79 33zM801 9q-20 0 -29 19q-35 75 -106 119.5t-154 44.5t-153.5 -44.5t-106.5 -119.5
q-6 -12 -18.5 -16.5t-24.5 1.5t-16.5 18t1.5 24q44 92 130.5 146.5t187.5 54.5t187.5 -54.5t130.5 -146.5q6 -12 1.5 -24.5t-16.5 -17.5q-7 -4 -14 -4z" />
    <glyph glyph-name="uniE61D" unicode="&#xe61d;" 
d="M824 832h-472q-13 0 -22.5 -9.5t-9.5 -22.5t9.5 -22.5t22.5 -9.5h352v-768h-352q-13 0 -22.5 -9.5t-9.5 -22.5t9.5 -22.5t22.5 -9.5h472q30 0 51 21t21 51v752q0 30 -21 51t-51 21zM832 8q0 -8 -8 -8h-56v768h56q8 0 8 -8v-752zM224 768q13 0 22.5 9.5t9.5 22.5
t-9.5 22.5t-22.5 9.5h-96v-128h-32v-64h32v-128h-32v-64h32v-128h-32v-64h32v-128h-32v-64h32v-128h96q13 0 22.5 9.5t9.5 22.5t-9.5 22.5t-22.5 9.5h-32v64h64v64h-64v128h64v64h-64v128h64v64h-64v128h64v64h-64v64h32z" />
    <glyph glyph-name="uniE61E" unicode="&#xe61e;" 
d="M486 -13q-85 0 -164 33q-75 32 -133.5 90t-89.5 134q-34 78 -34 163.5t34 164.5q31 75 89.5 133.5t133.5 89.5q79 34 164.5 34t163.5 -34q76 -31 134 -89.5t90 -133.5q33 -79 33 -164q0 -81 -29 -155t-84 -133q-10 -10 -23.5 -10.5t-23.5 9t-10.5 23.5t8.5 24
q96 102 96 242q0 96 -47.5 177.5t-129.5 129t-178 47.5t-177.5 -47.5t-129 -129t-47.5 -177.5t47.5 -178t129 -129.5t177.5 -47.5q77 0 147 32q12 6 25 1t18.5 -17.5t1 -25.5t-17.5 -19q-82 -37 -174 -37zM923 -61q-14 0 -24 11l-152 168q-10 10 -9 24t11 23t24 8.5
t23 -10.5l152 -168q9 -10 8.5 -24t-10.5 -23t-23 -9z" />
    <glyph glyph-name="uniE61F" unicode="&#xe61f;" 
d="M512 192q-13 0 -23 9l-320 320q-9 10 -9 23t9.5 22.5t22.5 9.5t23 -9l297 -298l297 298q10 9 23 9t22.5 -9.5t9.5 -22.5t-9 -23l-320 -320q-10 -9 -23 -9z" />
    <glyph glyph-name="uniE620" unicode="&#xe620;" 
d="M318 -128q-25 51 -33.5 95t-1.5 80.5t20 64t35 60.5q26 37 44 79t23 65l6 23q1 -2 4 -6.5t10.5 -20t10.5 -31.5t5.5 -41.5t-3.5 -50.5q54 60 74 147t8 137q67 -47 114.5 -119t69 -152.5t15 -168t-44.5 -161.5q89 50 150 109t89.5 116t38.5 118t0.5 115.5t-29.5 108
t-46 96.5t-53.5 79.5t-49 58.5t-35.5 32q13 -28 17 -61.5t-5 -68.5t-32 -55q-17 63 -41.5 118.5t-51 92.5t-54.5 67.5t-52.5 48t-44 29.5t-30.5 16l-12 4q29 -194 -195 -469q-3 57 -10.5 92.5t-30.5 77.5q-3 -50 -28 -106t-54 -115.5t-39 -106.5q-25 -122 29 -214.5
t213 -182.5z" />
    <glyph glyph-name="uniE621" unicode="&#xe621;" horiz-adv-x="1025" 
d="M907 654v13h-143l1 108q0 5 -4 5h-247q-1 0 -2 -1q-1 1 -2 1h-248q-4 0 -5 -5q-1 -47 2 -108h-138h-4q-1 0 -1 -5v-27v-5v-5v-11q0 -4 1 -4q3 -96 39 -171q39 -80 111 -133q60 -43 135 -62q40 -43 82 -54v-63q-2 -8 -5.5 -16t-15 -20.5t-29 -22t-50 -16.5t-75.5 -7h-19
q-4 0 -4 -4v-48q0 -5 4 -5h444q4 0 4 5v48q0 4 -4 4h-19q-49 0 -85 8.5t-52.5 20.5t-26 24.5t-10.5 20.5l-1 9v9v53q41 11 81 54q76 19 136 62q72 53 111 133q42 86 39 215zM207 464q-31 63 -34 146h89q3 -25 6 -46q26 -150 75 -238q-91 46 -136 138zM817 464
q-45 -92 -137 -139q49 88 75 239q3 21 5 46h91q-3 -83 -34 -146zM817 464z" />
    <glyph glyph-name="uniE622" unicode="&#xe622;" 
d="M467 -18q-40 0 -54 18t-14 57v56q-1 49 -1 82q0 45 -1 84q-1 43 -1 65q0 35 -7 54.5t-32 18.5q-19 0 -44 1t-44 0q-32 0 -41 17t12 44q20 24 52 63q33 41 61 75q33 41 61 76q31 40 53 66q21 26 40.5 27t42.5 -23q16 -20 51 -61q29 -35 60 -72q46 -54 62 -73
q31 -37 54 -64q27 -31 21 -51t-39 -20q-11 0 -23 -1h-12h-14q-21 -1 -27 -1q-13 -1 -25 -1q-23 -1 -29 -14t-5 -37q0 -28 1 -67v-47q0 -30 1 -41q0 -45 1 -88t1 -70q0 -11 -2 -24q-2 -12 -9 -22.5t-19.5 -17.5t-32.5 -7h-47q-21 -1 -51 -2v0v0z" />
    <glyph glyph-name="uniE623" unicode="&#xe623;" 
d="M320 0h-160q-13 0 -22.5 9.5t-9.5 22.5v160q0 13 9 23l448 448q10 9 23 9t23 -9l96 -96q9 -10 9 -23t-9.5 -22.5t-22.5 -9.5t-23 9l-73 74l-416 -416v-115h115l502 503q10 9 23 9t22.5 -9.5t9.5 -22.5t-9 -23l-512 -512q-10 -9 -23 -9zM831 512q-13 0 -22.5 9.5
t-9.5 22.5t9 23q24 23 24 56.5t-23.5 57t-57 23.5t-56.5 -24q-10 -9 -23 -9t-22.5 9.5t-9.5 22.5t9 23q43 42 102.5 42t102 -42.5t42.5 -102t-42 -102.5q-10 -9 -23 -9z" />
    <glyph glyph-name="uniE624" unicode="&#xe624;" 
d="M515 563q-74 0 -126 -53t-52 -127.5t52 -127.5t126 -53t126.5 53t52.5 127.5t-52.5 127.5t-126.5 53zM515 262q-49 0 -84.5 36t-35.5 86t35 85t84 35t84 -35t35 -85t-34.5 -86t-83.5 -36zM988 391v3v2h-1v1l-1 1v2q-64 148 -192 232t-280 84t-282 -84t-194 -232v-1l-1 -1
v-2q-1 -1 -1 -2v-3q-1 -5 -1 -7.5t1 -8.5v-2q0 -2 1 -3q0 -1 0.5 -1t0.5 -1v-2q64 -147 193 -230.5t281 -83.5t281 83.5t193 230.5q0 1 0.5 1.5l0.5 0.5v2h1v2v3q1 5 1 8t-1 8zM512 112q-132 0 -244.5 70t-171.5 201q58 131 172 202t246 71q131 0 243 -71t171 -202
q-58 -131 -171 -201t-245 -70zM512 112z" />
    <glyph glyph-name="uniE625" unicode="&#xe625;" 
d="M832 192q-13 0 -23 9l-297 298l-297 -298q-10 -9 -23 -9t-22.5 9.5t-9.5 22.5t9 23l320 320q10 9 23 9t23 -9l320 -320q9 -10 9 -23t-9.5 -22.5t-22.5 -9.5z" />
    <glyph glyph-name="uniE626" unicode="&#xe626;" horiz-adv-x="1000" 
d="M676 567q16 0 34 -2q-23 106 -123.5 176t-229.5 70q-95 0 -175.5 -39.5t-127.5 -108t-47 -150.5q0 -138 140 -236l-35 -106l122 62q89 -18 123 -18q15 0 33 2q-11 37 -11 73q0 115 86.5 196t210.5 81zM485.5 669q22.5 0 38.5 -16t16 -38.5t-16 -38t-38.5 -15.5t-38 15.5
t-15.5 38t15.5 38.5t38 16zM240.5 560q-22.5 0 -38 15.5t-15.5 38t15.5 38.5t38 16t38.5 -16t16 -38.5t-16 -38t-38.5 -15.5zM994 293q0 68 -41.5 127t-110 93t-146.5 34q-124 0 -211 -74.5t-87 -179.5t87 -179.5t211 -74.5q35 0 105 18l96 -53l-26 87q123 92 123 202z
M605 332q-16 0 -27.5 11.5t-11.5 27.5t11.5 27t27.5 11t27 -11t11 -27t-11 -27.5t-27 -11.5zM797 330q-16 0 -27 11.5t-11 27.5t11 27t27 11t27.5 -11t11.5 -27t-11.5 -27.5t-27.5 -11.5z" />
    <glyph glyph-name="uniE627" unicode="&#xe627;" 
d="M227 216v357q0 15 9.5 25.5t22.5 10.5t22 -10.5t9 -25.5v-357q0 -14 -9 -24.5t-22 -10.5t-22.5 10.5t-9.5 24.5zM990 -28h-1l-223 98l-262 -95l-261 71l-198 -99q-1 4 -4 4q-15 0 -25.5 10.5t-10.5 25.5v676l238 120l133 -54q-6 -31 -6 -63v-3v-2l-127 50l-174 -102v-571
l174 79l261 -71l262 95l190 -71v627q0 16 9.5 27t22.5 11t22 -11t9 -27v-709q-9 -16 -29 -16zM496 322v-156q0 -13 -9 -23t-22 -10t-22.5 10t-9.5 23v156q0 13 9.5 23t22.5 10t22 -10t9 -23zM663 292q-10 8 -26.5 22.5t-59 57t-75 82t-59 90t-26.5 88.5q0 102 72 174t174 72
t173.5 -72t71.5 -174q0 -42 -25 -92.5t-61 -92.5t-72.5 -78.5t-61.5 -56.5zM662.5 815q-75.5 0 -128.5 -56.5t-53 -135.5q0 -29 18.5 -66t45.5 -68.5t53.5 -59t45.5 -42.5l19 -16q7 5 19.5 14.5t44 38.5t55.5 58t43.5 68t19.5 73q0 79 -53.5 135.5t-129 56.5zM663 529
q-43 0 -73 30.5t-30 72.5q0 37 23 65t58 35q7 3 14 3q13 0 22.5 -9t9.5 -22.5t-9.5 -22.5t-22.5 -9v-1q-14 -3 -23 -13.5t-9 -25.5q0 -16 11.5 -27.5t28.5 -11.5q14 0 25 9t14 22q0 13 9.5 22.5t22.5 9.5t22.5 -9.5t9.5 -22.5q0 -7 -3 -13q-8 -35 -36 -58.5t-64 -23.5z" />
    <glyph glyph-name="uniE628" unicode="&#xe628;" 
d="M512 -96q-130 0 -240.5 64.5t-175 175t-64.5 240.5t64.5 240.5t175 175t240.5 64.5q13 0 22.5 -9.5t9.5 -22.5v-416h416q13 0 22.5 -9.5t9.5 -22.5q0 -130 -64.5 -240.5t-175 -175t-240.5 -64.5zM480 799q-106 -8 -194 -65t-139 -150t-51 -200q0 -172 122 -294t294 -122
q107 0 200 51t150 139t65 194h-415q-13 0 -22.5 9.5t-9.5 22.5v415z" />
    <glyph glyph-name="uniE629" unicode="&#xe629;" 
d="M581 261v-1v1zM581 261zM581 260v1v-1zM874 196q49 35 77.5 88.5t28.5 115.5q0 77 -43 140t-113 91v-7q-32 101 -118 164.5t-194 63.5t-194 -63.5t-118 -164.5v7q-70 -28 -113 -91t-43 -140q0 -62 28.5 -116t77.5 -88q-76 -107 -88 -237q-2 -6 -2 -12q0 -13 9 -22t22 -9
t22 9t9 22h2q1 43 17 87.5t34.5 74t35.5 55.5t19 33q4 12 -4 22.5t-17 14.5l-9 4q-43 25 -68.5 68t-25.5 94q0 46 21.5 86t58.5 66q-2 -16 -2 -28q0 -89 44.5 -164t119.5 -118q-86 -126 -86 -279q0 -2 0.5 -4t0.5 -5v-4l-1 -3q0 -13 9.5 -22t22.5 -9t22 9t9 22h1
q0 2 -0.5 7.5t-0.5 8.5q10 75 25.5 127t27 72t30 43t24.5 34q3 12 -2 22.5t-16 14.5q1 1 2 1q-76 30 -122.5 97t-46.5 150q0 110 77.5 188t187.5 78t187.5 -78t77.5 -188q0 -82 -46.5 -149t-120.5 -97q-22 -8 -20 -34h1v-2q7 -16 23.5 -40.5t29.5 -46.5t28.5 -76.5
t25.5 -131.5h1q0 -13 9 -22t22 -9t22.5 9t9.5 22l-1 3l1 13q0 152 -85 278q74 44 118.5 119t44.5 164q0 12 -2 28q37 -26 58.5 -66t21.5 -86q0 -51 -25.5 -94t-68.5 -68q-2 -1 -4.5 -2.5t-10.5 -6t-11.5 -9t-6.5 -11t3 -12.5q36 -27 72 -114t36 -136q0 -11 9.5 -21t21.5 -10
q13 0 22 9t9 22q0 6 -2 12q-11 130 -88 237zM679 423q6 18 -6 29t-29.5 8t-23.5 -21q-14 -41 -61 -57.5t-94 0t-61 57.5q-6 18 -23.5 21t-29.5 -8t-6 -29q14 -42 48.5 -70t76.5 -35t84 0t76.5 35t48.5 70z" />
    <glyph glyph-name="uniE62A" unicode="&#xe62a;" 
d="M572 174v330q0 18 15 25.5t30 0t15 -25.5v-330q0 -24 -24 -28t-33 16q-3 5 -3 12v0zM392 174v330q0 18 15 25.5t30 0t15 -25.5v-330q0 -18 -15 -25.5t-30 0t-15 25.5v0zM902 654h-150v60q0 37 -26 63t-63 26h-301q-37 0 -63.5 -26t-26.5 -63v-60h-150q-18 0 -25.5 -15
t0 -30t25.5 -15h780v60v0zM332 714q0 12 9 21t21 9h301q12 0 20.5 -8.5t8.5 -21.5v-60h-360v60zM722 -35h-420q-37 0 -63.5 26t-26.5 63v450q0 13 9 21.5t21 8.5t21 -8.5t9 -21.5v-450q0 -11 9 -20.5t21 -9.5h420q12 0 21 9.5t9 20.5v449q0 18 15 26t30 0t15 -26v-449
q0 -37 -26.5 -63t-63.5 -26zM722 -35z" />
    <glyph glyph-name="uniE62B" unicode="&#xe62b;" 
d="M862 319q1 0 3.5 -1.5t8 -6.5t10 -12t7.5 -21t1 -31q-1 -17 -6 -31.5t-11 -21.5t-12 -12t-10 -6l-4 -1q1 -2 2.5 -6t3 -19t-4.5 -34q-4 -19 -16.5 -36t-23.5 -24l-10 -8q-1 -5 -2.5 -13t-11 -26.5t-23.5 -29.5q-19 -14 -47 -19t-64 -1.5t-63.5 8t-65.5 13.5t-51 11
q-64 12 -157 23.5t-120 6.5q-11 -3 -24 34.5t-22 92.5t-14.5 111.5t-2.5 97.5t14 44q120 30 182 57q22 9 47.5 41.5t53.5 69.5t51 53q44 30 72 60t38 51.5t15.5 39t10 26.5t15.5 11h5q14 0 22.5 -0.5t26.5 -3t30.5 -7.5t28.5 -15.5t26.5 -25t19 -38t10.5 -52.5
q1 -24 -4 -44.5t-10 -30.5t-20 -33t-21 -33q-5 -9 -6 -14.5t4 -8t10.5 -3t18.5 -1.5q10 0 15.5 -0.5t16 -1.5t19.5 -3q31 -5 50.5 -35.5t18.5 -69.5q0 -18 -3.5 -31.5t-8 -21t-8.5 -12t-7 -5.5zM829 397q0 18 -14 32t-39 17q-9 1 -28 2q-20 2 -29 3t-23 3.5t-19.5 6
t-10.5 9.5t-4 15t6 21q10 24 25 53.5t22.5 44.5t13 35t5.5 39q0 33 -15 55t-40 22q-11 -1 -18.5 -16t-15.5 -36.5t-36.5 -55t-73.5 -64.5q-22 -15 -92.5 -96t-93.5 -91q-19 -8 -46.5 -14.5t-58 -12t-41.5 -8.5q-10 -2 -12.5 -33.5t2 -74t12 -84.5t18.5 -70t21 -25l-4 -1
q22 5 102.5 -5t135.5 -20l35 -7q30 -6 46.5 -9t45.5 -6.5t48 -4t39 2.5t31 11q12 8 18 23.5t6 26.5v11q4 2 11 6.5t19 19t14 30.5q2 17 -1.5 31t-8.5 19l-4 6q0 1 5 0t12.5 1.5t15.5 6t14.5 13.5t8.5 24t-1.5 27t-10 20.5t-13 13.5t-11.5 9l-5 2q4 2 10 6.5t16.5 23.5
t10.5 42z" />
    <glyph glyph-name="uniE62C" unicode="&#xe62c;" 
d="M164 352q-2 -1 -4 -1q-5 0 -8 5v1l-25 55q-1 1 -1 2q0 4 5 4q1 0 3 -1l29 -21q3 -2 7 -2q3 0 5 1l138 61q-41 48 -111 48q-57 0 -97 -33t-40 -80q0 -52 47 -86q4 -3 4 -8v-3q-6 -22 -7 -23v-3q0 -4 4 -4h3l30 18q3 2 7 2q2 0 4 -1q22 -6 45 -6q56 0 96 33.5t40 80.5
q0 28 -15 52l-158 -90zM594 407h76v-7h-76v7zM594 385h76v-7h-76v7zM596 318h72v41h-72v-41zM661 324h-58v29h58v-29zM577 447q-10 -36 -29 -64l4 -7q7 10 13 23v-81h7v95q7 14 12 30zM633 429l5 3q0 1 -3 7.5t-4 7.5l-6 -4q3 -6 6 -13l1 -1h-46v-7h92v7h-45zM460 445h6v-35
h14v25h6v-31h-47v31h7v-25h14v35zM441 390h42v-7h-42v7zM489 352l-11 -9v26h-35v-10q2 -22 -11 -31l4 -6q15 12 14 34v7h22v-16q-1 -7 -3 -10l4 -7q6 5 19 17zM429 446q-10 -20 -24 -34l4 -7q16 17 27 38zM429 411q-10 -24 -26 -42l4 -7l12 16v-60h7v71l9 18zM537 415v6h-31
q6 17 7 25h-7q-7 -31 -20 -53l4 -7q1 1 3 6l3 6q4 -29 12 -45q-8 -14 -24 -28l4 -6q17 15 23 27q7 -13 21 -28l4 7q-15 14 -21 27q12 22 14 63h8zM512 360q-7 18 -11 48q1 3 3 7h19q-2 -35 -11 -55zM906 351q-8 16 -23 37l6 3q15 -21 23 -36zM819 319l1 6q-33 5 -57 19
q28 18 40 46l-5 3h-1h-37v25h56v7h-56v24h-7v-24h-56v-7h56v-25h-38v-7q12 -25 36 -42q-24 -13 -57 -19l2 -7q36 7 61 22q25 -16 61 -22zM723 386h70q-11 -23 -36 -38q-23 15 -34 38zM869 448q-14 -36 -37 -59l3 -8q9 8 17 21v-84h7v95q10 16 16 33zM940 416v31h-7v-31h-60
v-7h60v-80q0 -5 -5 -5h-2q-2 0 -4.5 -0.5t-5.5 -0.5v-6q12 0 17 1q7 2 7 11v80h19v7h-19z" />
    <glyph glyph-name="uniE62D" unicode="&#xe62d;" 
d="M142 370q-20 -2 -31 -11q-11 -12 -11.5 -25t13.5 -24t37 -11q44 0 80 48q-55 27 -88 23zM326 344l56 -16v163q0 21 -15 36t-36 15h-215q-21 0 -36 -15t-15 -36v-214q0 -21 15 -36t36 -15h215q21 0 36 15t15 36v2q-83 34 -124 54q-45 -55 -102 -55q-30 0 -48.5 15.5
t-19 36t13.5 39.5q11 14 34 20q33 8 110 -17q12 20 18 43h-124v13h64v22h-77v13h77v32q0 5 6 5h31v-37h76v-13h-76v-22h62q-8 -36 -26 -67q7 -2 17.5 -6t18 -7t13.5 -4zM832 492h91v-18h32v22q0 8 -8 9h-52v16h-34v-16h-61v-31h32v18zM636 520l-33 -79h25v-93h28v124h-10
l21 48h-31zM959 352l-10 34q-1 4 -5 4h-27l8 -26h-32v51h62v12h-62v24h62v12h-155v-12h62v-24h-62v-12h62v-51h-62v-12h159v0zM707 455q-1 4 -5 4h-24l18 -59h29zM768 518h-28v-30h-72v-12h72v-109q-1 -4 -5 -4h-15v-13h38q10 0 10 11v115h12v12h-12v30zM588 463h-56v20h65
v13h-65v25h-28q-6 0 -6 -6v-19h-64v-13h64v-20h-54v-12h107q-6 -23 -35 -48q-12 8 -20.5 17t-11.5 14l-3 4h-29q16 -27 46 -49q-28 -18 -65 -29v-15q42 8 83 32q18 -10 39 -18t32 -11l12 -3v14q-36 13 -64 31q42 31 53 73zM497 265l4 -15h14l-27 72h-10l-26 -72h13l5 15h27z
M484 304l10 -30h-21zM557 322v-72h44v10h-31v62h-13zM649 322h13v-72h-13v72zM742 322h-28v-72h13v28h15q11 0 17.5 6t6.5 16t-6.5 16t-17.5 6zM741 288h-14v25h14q12 0 12 -12.5t-12 -12.5zM842 265l5 -15h13l-26 72h-11l-26 -72h13l5 15h27zM829 304l10 -30h-20zM932 322
l-14 -30l-14 30h-14l22 -42v-30h13v30l21 42h-14z" />
    <glyph glyph-name="uniE62E" unicode="&#xe62e;" 
d="M862 197q-18 -13 -10 -36q1 -2 2 -5.5t2.5 -13.5t0.5 -20q-3 -38 -38 -54q-15 -7 -18 -24q-4 -21 -14 -40q-9 -17 -21 -28t-21 -12q0 1 -16.5 1.5t-40.5 1.5t-36 2q-32 3 -89 17t-76 17q-49 9 -103 16q-61 9 -92 12q-15 1 -43 2.5t-37 1.5h-6q-13 -3 -19 9q-11 23 -16 38
q-16 52 -26 129q-7 59 -5 98q1 17 5 38q1 11 15 14q40 7 102 19q15 3 44 11q32 9 55 34q27 28 86 90q30 33 45 50q24 26 72 61q53 38 86 86q12 18 33 61q3 8 9 17q12 19 33 13q23 -7 35 -32q13 -28 10 -71q-3 -27 -22 -68q-36 -77 -45 -102q-3 -11 -5 -22q-3 -23 19 -33
q13 -7 38 -10q5 -1 33.5 -5.5t43.5 -7.5q23 -4 31 -9q11 -7 16 -21q16 -37 -12 -76q-11 -16 -1 -34l3 -7t7 -15.5t6.5 -21t2 -24.5t-6 -24.5t-16.5 -22.5z" />
    <glyph glyph-name="uniE62F" unicode="&#xe62f;" 
d="M799 800h-574q-13 0 -22.5 9.5t-9.5 22.5t9.5 22.5t22.5 9.5h574q13 0 22.5 -9.5t9.5 -22.5t-9.5 -22.5t-22.5 -9.5zM433 349q-99 0 -169.5 70.5t-70.5 170.5v242q0 13 9.5 22.5t22.5 9.5t22.5 -9.5t9.5 -22.5v-242q0 -73 51.5 -125t124.5 -52q13 0 22.5 -9t9.5 -22.5
t-9.5 -23t-22.5 -9.5zM591 349q-13 0 -22.5 9.5t-9.5 23t9.5 22.5t22.5 9q73 0 124.5 52t51.5 125v242q0 13 9.5 22.5t22.5 9.5t22.5 -9.5t9.5 -22.5v-242q0 -100 -70.5 -170.5t-169.5 -70.5zM225 -96q-13 0 -22.5 9.5t-9.5 22.5v237q0 100 70.5 170t169.5 70q13 0 22.5 -9
t9.5 -22.5t-9.5 -23t-22.5 -9.5q-73 0 -124.5 -51.5t-51.5 -124.5v-237q0 -13 -9.5 -22.5t-22.5 -9.5zM799 -96q-13 0 -22.5 9.5t-9.5 22.5v237q0 73 -51.5 124.5t-124.5 51.5q-13 0 -22.5 9.5t-9.5 23t9.5 22.5t22.5 9q99 0 169.5 -70t70.5 -170v-237q0 -13 -9.5 -22.5
t-22.5 -9.5zM799 -96h-574q-13 0 -22.5 9.5t-9.5 22.5t9.5 22.5t22.5 9.5h574q13 0 22.5 -9.5t9.5 -22.5t-9.5 -22.5t-22.5 -9.5zM683.5 -96q-13.5 0 -22.5 9.5t-9 22.5q0 39 -41.5 67.5t-98.5 28.5t-98 -28.5t-41 -67.5q0 -13 -9.5 -22.5t-23 -9.5t-22.5 9.5t-9 22.5
q0 66 59.5 113t143.5 47t143.5 -47t59.5 -113q1 -13 -8.5 -22.5t-23 -9.5zM512.5 459q-51.5 0 -88.5 36q-9 10 -9 23t9 22.5t22.5 9.5t22.5 -10q17 -17 43 -17t43 17q9 10 22.5 10t22.5 -9.5t9 -22.5t-9 -23q-36 -36 -87.5 -36z" />
    <glyph glyph-name="uniE630" unicode="&#xe630;" 
d="M960 -96h-896q-13 0 -22.5 9.5t-9.5 22.5v455q0 96 38 183.5t102.5 151t153 101t186.5 37.5t186.5 -37.5t153 -101t102.5 -151t38 -183.5v-455q0 -13 -9.5 -22.5t-22.5 -9.5zM96 -32h832v423q0 111 -55.5 205t-151.5 149t-209 55t-209 -55t-151.5 -149t-55.5 -205v-423z
M448 192h-128q-13 0 -22.5 9.5t-9.5 22.5t9.5 22.5t22.5 9.5h111l43 64l-43 64h-111q-13 0 -22.5 9.5t-9.5 22.5t9.5 22.5t22.5 9.5h128q17 0 27 -14l64 -96q11 -18 0 -36l-64 -96q-10 -14 -27 -14zM704 192h-128q-17 0 -27 14l-64 96q-11 18 0 36l64 96q10 14 27 14h128
q13 0 22.5 -9.5t9.5 -22.5t-9.5 -22.5t-22.5 -9.5h-111l-43 -64l43 -64h111q13 0 22.5 -9.5t9.5 -22.5t-9.5 -22.5t-22.5 -9.5z" />
    <glyph glyph-name="uniE631" unicode="&#xe631;" 
d="M896 -32h-192q-13 0 -22.5 9.5t-9.5 22.5t9.5 22.5t22.5 9.5h192q13 0 22.5 7t9.5 16v658q0 9 -9.5 16t-22.5 7h-768q-13 0 -22.5 -7t-9.5 -16v-658q0 -9 9.5 -16t22.5 -7h416q13 0 22.5 -9.5t9.5 -22.5t-9.5 -22.5t-22.5 -9.5h-416q-40 0 -68 25.5t-28 61.5v658
q0 36 28 61.5t68 25.5h768q40 0 68 -25.5t28 -61.5v-658q0 -36 -28 -61.5t-68 -25.5zM192 672q-13 0 -22.5 9.5t-9.5 22.5v128q0 13 9.5 22.5t22.5 9.5t22.5 -9.5t9.5 -22.5v-128q0 -13 -9.5 -22.5t-22.5 -9.5zM832 672q-13 0 -22.5 9.5t-9.5 22.5v128q0 13 9.5 22.5
t22.5 9.5t22.5 -9.5t9.5 -22.5v-128q0 -13 -9.5 -22.5t-22.5 -9.5zM512 160q-5 0 -10 2q-13 4 -19 16t-1 24l114 342h-212q-13 0 -22.5 9.5t-9.5 22.5t9.5 22.5t22.5 9.5h256q16 0 26 -13.5t4 -28.5l-128 -384q-7 -22 -30 -22zM608 -96q-13 0 -22.5 9.5t-9.5 22.5t-9.5 22.5
t-22.5 9.5t-22.5 9.5t-9.5 22.5t9.5 22.5t22.5 9.5q40 0 68 -28t28 -68q0 -13 -9.5 -22.5t-22.5 -9.5z" />
    <glyph glyph-name="uniE632" unicode="&#xe632;" 
d="M352 32q-13 0 -22.5 9.5t-9.5 22.5t9 23l298 297l-298 297q-9 10 -9 23t9.5 22.5t22.5 9.5t23 -9l320 -320q9 -10 9 -23t-9 -23l-320 -320q-10 -9 -23 -9z" />
    <glyph glyph-name="uniE633" unicode="&#xe633;" 
d="M672 32q-13 0 -23 9l-320 320q-9 10 -9 23t9 23l320 320q10 9 23 9t22.5 -9.5t9.5 -22.5t-9 -23l-298 -297l298 -297q9 -10 9 -23t-9.5 -22.5t-22.5 -9.5z" />
    <glyph glyph-name="uniE634" unicode="&#xe634;" 
d="M511.5 -75q92.5 0 177 36t145.5 97t97 145.5t36 177t-36 177t-97 145.5t-145.5 97t-177 36t-177 -36t-145.5 -97t-97 -145.5t-36 -177t36 -177t97 -145.5t145.5 -97t177 -36zM508 109q-14 0 -23.5 10t-9.5 23.5t9.5 23t23.5 9.5t23.5 -9.5t9.5 -23t-9.5 -23.5t-23.5 -10z
M345 491q9 72 52 109.5t113 37.5q75 0 119.5 -40.5t44.5 -98.5q0 -33 -16 -61t-61 -68q-31 -27 -40 -40t-13.5 -29.5t-5.5 -54.5v0q0 -13 -9 -21.5t-21.5 -8.5t-21 8.5t-8.5 21.5v4v8v7q0 37 10 63q8 20 25 41q12 15 44.5 43.5t42 45.5t9.5 37q0 37 -28 64.5t-70 27.5
q-40 0 -66 -25q-27 -25 -35 -77q-1 -12 -10.5 -21t-22.5 -9t-22.5 9.5t-9.5 22.5v4z" />
    <glyph glyph-name="uniE635" unicode="&#xe635;" 
d="M978 352v-265q0 -139 -185 -139h-584q-45 0 -76.5 11t-51.5 31.5t-28.5 49t-8.5 61.5v251h934zM507 311q-11 -2 -21 -6q-8 -4 -14 -12.5t-6 -24.5v-54h-60q-15 0 -27.5 -10t-12.5 -30q-1 -18 12 -29t28 -11h60v-59q0 -9 9.5 -23.5t30 -14.5t30.5 14.5t10 25.5v57h62
q12 0 25 10t13 30t-12 30t-28 10h-60v58q0 12 -10 25.5t-29 13.5zM355 627q-2 21 2 44q3 19 12 41t28 43q16 16 40.5 28t52 15.5t57.5 -2t56 -23.5q27 -18 39.5 -42.5t17.5 -48.5q7 -27 6 -55h-57q1 13 -1 26q-2 12 -6 25t-12 24q-9 13 -21 19.5t-23 10t-21.5 4.5t-14.5 1
q-9 1 -27.5 -2.5t-42.5 -21.5q-11 -10 -17 -24t-8 -29q-3 -16 -2 -33h-58zM190 403h-148v23v24q0 13 1 27q0 15 5.5 32.5t19.5 33t35.5 26.5t54.5 11h76h128h152h150h122h70q26 0 47.5 -8.5t37.5 -22.5t25.5 -33t9.5 -41v-71h-151v33q0 12 -10 22.5t-24.5 10.5t-27 -8
t-12.5 -25v-34h-486v33q-1 14 -12 24t-25.5 10t-26.5 -11.5t-12 -25.5v-21q0 -4 1 -9z" />
    <glyph glyph-name="uniE636" unicode="&#xe636;" horiz-adv-x="1025" 
d="M1024 512v212q0 45 -31.5 76.5t-76.5 31.5h-808q-45 0 -76.5 -31.5t-31.5 -76.5v-212q53 0 90.5 -37.5t37.5 -90.5t-37.5 -90.5t-90.5 -37.5v-212q0 -45 31.5 -76.5t76.5 -31.5h808q45 0 76.5 31.5t31.5 76.5v212q-53 0 -90.5 37.5t-37.5 90.5t37.5 90.5t90.5 37.5z
M960 203v-159q0 -18 -13 -31t-31 -13h-808q-18 0 -31 13t-13 31v159q57 20 92.5 70t35.5 111.5t-35.5 111t-92.5 69.5v159q0 18 13 31t31 13h808q18 0 31 -13t13 -31v-159q-57 -20 -92.5 -69.5t-35.5 -111t35.5 -111.5t92.5 -70zM735 384q13 0 22.5 9.5t9.5 22.5t-9.5 22.5
t-22.5 9.5h-162l169 169q9 9 9 22.5t-9 22.5t-22.5 9t-22.5 -9l-186 -186l-185 186q-9 9 -22.5 9t-23 -9.5t-9.5 -22.5t10 -23l168 -168h-161q-13 0 -22.5 -9.5t-9.5 -22.5t9.5 -22.5t22.5 -9.5h191v-64h-191q-13 0 -22.5 -9.5t-9.5 -22.5t9.5 -22.5t22.5 -9.5h191v-191
q0 -14 9.5 -23t23 -9t22.5 9t9 23v191h192q13 0 22.5 9.5t9.5 22.5t-9.5 22.5t-22.5 9.5h-192v64h192z" />
    <glyph glyph-name="uniE637" unicode="&#xe637;" 
d="M820 808h-56q-13 0 -23 -7t-10 -18q0 -12 10.5 -22t22.5 -10h56q25 0 40.5 -15.5t15.5 -40.5v-646q0 -25 -15.5 -40.5t-40.5 -15.5h-604q-27 0 -49 16t-22 40v646q0 25 15.5 40.5t40.5 15.5h71q21 0 21 32q0 25 -21 25h-71q-56 0 -84 -31.5t-28 -82.5v-639
q0 -53 31 -85.5t87 -32.5h607q58 0 88 30t30 88v639q0 50 -29.5 82t-82.5 32zM272 554.5q0 -11.5 8.5 -20t19.5 -8.5h422q12 0 20.5 8.5t8.5 20t-8.5 20t-20.5 8.5h-422q-11 0 -19.5 -8.5t-8.5 -20zM721 428h-421q-11 0 -19.5 -8.5t-8.5 -20.5t8.5 -20.5t19.5 -8.5h422
q12 0 20.5 8.5t8.5 20.5q-1 12 -9.5 20.5t-20.5 8.5zM721 259h-421q-11 0 -19.5 -8.5t-8.5 -20t8.5 -20t19.5 -8.5h422q12 0 20.5 8.5t8.5 20.5q-1 12 -9.5 20t-20.5 8zM414 737h196q17 0 29.5 14.5t12.5 34.5t-13 34.5t-30 14.5h-195q-18 0 -30.5 -14.5t-12.5 -34.5
t12.5 -34.5t30.5 -14.5z" />
    <glyph glyph-name="uniE638" unicode="&#xe638;" 
d="M512 653q37 0 63.5 26t26.5 63.5t-26.5 63.5t-63.5 26t-63.5 -26t-26.5 -63.5t26.5 -63.5t63.5 -26zM512 474q-37 0 -63.5 -26.5t-26.5 -63.5t26.5 -63.5t63.5 -26.5t63.5 26.5t26.5 63.5t-26.5 63.5t-63.5 26.5zM512 115q-37 0 -63.5 -26t-26.5 -63.5t26.5 -63.5
t63.5 -26t63.5 26t26.5 63.5t-26.5 63.5t-63.5 26z" />
    <glyph glyph-name="uniE639" unicode="&#xe639;" 
d="M971 752h-918q-22 0 -37.5 -15.5t-15.5 -37.5v-139h1024v139q0 22 -15.5 37.5t-37.5 15.5zM845 247q-9 0 -11 1v-2l-3 -11q-6 -25 -6 -26h10l1 2v4v2l2 5v1h1q11 0 16 3.5t6 9.5q1 2 1 4t-2 4q-2 3 -12 3h-3zM851 235q-1 -4 -4 -5q-2 -1 -6 -1h-2l3 12v1h1l6 -1
q3 -1 2 -6zM856 168h-2l8 26h2l1 2v-3q0 -3 5 -3h5l1 5h-2q-1 0 -1 1v3h-8q-10 0 -12 -1l-4 -2l1 3h-8l-1 -5l-8 -27h-2l-1 -5h15l-1 -1h8v1h2zM846 168h-6l2 5h6zM850 179q-2 0 -3 -1l-4 -1l2 7h6zM850 188l-4 -1l2 7h6l-1 -5q-2 0 -3 -1zM822 176v-1h-2h-2l1 2h-7l-1 -14
q0 -1 1 -1.5t6 -0.5h5l1 5h-4h-1h-1v1v4h4q2 0 4 1q1 1 1 3l1 3h-5zM856 219q-2 -8 3 -10q3 -1 5 -1t4 2v-1v-1h9v1q1 6 3 13q1 4 2 9q-4 0 -9 -1h-1v-1q-1 1 -3 2q-3 1 -9 -3q-3 -3 -4 -9zM864 219q2 7 5 7q2 0 2 -4v-2q-1 -2 -1 -3l-1 -2q-1 -2 -3 -2t-2 2v4zM775 220
q-2 -9 4 -11q2 -1 5 -1q6 0 10 4q3 3 4 8q1 6 -1 8.5t-8 2.5t-10 -3q-3 -3 -4 -8zM784 219q1 7 4 7t1 -6q-1 -3 -2 -5t-2 -2q-2 0 -2 3q0 1 1 3zM780 183h4l-1 -5h-4l-2 -5h5l-3 -9v-2q1 -1 2 -1h2h10l1 5h-4q-3 0 -3 1l2 6h9l1 5h-8l1 5h8l2 4h-21zM797 199h-9l-2 -4l-2 -1
q0 -1 -1 -1h-1l-2 -5h4q2 0 4 1v1h1l1 1h12l2 5h-9zM773 227q-4 -1 -5 -1h-2h-2v-1h-1v-4q-1 -2 -1 -6q-1 -2 -1 -3q-1 -2 -1 -3v0h4h5v0v2q0 1 0.5 1t1.5 5q0 1 1 3v2q1 4 1 5v0zM713 209q7 0 11 2q5 3 8 12v2q5 20 6 22h-9l-1 -5q-2 -6 -3 -11l-1 -5q-2 -7 -4 -9t-5 -2
q-4 0 -5 4v1l1 6q5 19 6 21h-11v-1l-5 -21v-2l-1 -6q0 -2 1 -4q2 -4 12 -4zM772.5 233q-3.5 2 -7 -0.5t-0.5 -4.5t7 0.5t0.5 4.5zM734 209h9q1 4 1 7l2 8q2 1 3 1l-19 -81q-1 -7 2.5 -12t10.5 -5h3q-7 0 -10.5 5t-1.5 12l15 65h6h1q1 4 2 9v3q2 6 1 8q-1 3 -5 3l10 40
q3 14 17 16h-3q-15 -2 -18 -16l-9 -41q-1 0 -2 -1l-2 -1l1 2l-1 1q-3 -1 -8 -2h-1q0 -6 -2 -13zM861 184h9l-2 -4h-8l-2 -5h8l-6 -8q0 -1 -1 -1h-2h-2l-1 -5h5q4 0 6 3l4 5l1 -5q0 -2 2 -2q1 -1 2 -1h2h2l2 5h-1h-2v2l-1 5h-4l2 2h9l1 5h-8l1 4h8l2 5h-25zM0 69
q0 -22 15.5 -37.5t37.5 -15.5h918q22 0 37.5 15.5t15.5 37.5v395h-1024v-395zM671 144l30 128q2 7 7.5 11.5t12.5 4.5h61h2h74h2h56q6 0 10 -4.5t2 -11.5l-30 -128q-3 -14 -17 -17h-1h-64q-7 0 -10.5 5t-1.5 12l4 17h1l2 5h-2l3 13h8h3q1 0 3 1q1 0 2 1q1 2 2 5l4 13h-12
q-3 -1 -5 -1l-1 -1l3 12h1q1 4 2 9v3q2 6 1 8l10 43q4 14 18 16h-3q-14 -2 -17 -16l-10 -41q-1 1 -2 1q-3 0 -6 -2l-2 -1l1 2v1q-4 -1 -9 -2q-1 -6 -3 -13q-1 -7 -2 -8h1h8q1 6 2 7l1 8q2 1 3 1q2 0 1 -2q0 -2 -1 -8l-1 -2v-1q0 -2 -1 -3h1h4l-2 -10h-7l-10 -33
q0 -2 -0.5 -3t1.5 -2h2h4h1l-4 -17q-2 -7 1.5 -12t10.5 -5h-63h-2h-64q-7 0 -10.5 5t-2.5 12zM805 168l4 11l-3 -13h-1v2zM810 183v1v-1zM822 186v-3h-1h-1h-7v3h9zM814 190l1 3h10l-1 -2h-7q-1 -1 -3 -1zM288 368q0 7 4.5 11.5t11.5 4.5h31q7 0 12 -4.5t5 -11.5v-48
q0 -6 -5 -11t-12 -5h-31q-7 0 -11.5 5t-4.5 11v48zM176 368q0 7 5 11.5t12 4.5h31q7 0 11.5 -4.5t4.5 -11.5v-48q0 -6 -4.5 -11t-11.5 -5h-31q-7 0 -12 5t-5 11v48zM64 368q0 7 5 11.5t11 4.5h32q6 0 11 -4.5t5 -11.5v-48q0 -6 -5 -11t-11 -5h-32q-6 0 -11 5t-5 11v48z
M880 196v-1h-1h-1l-2 -5h5q4 0 6 3l22 38l-1 1l-8 -2v0l-3 -6l-2 -4v1l-1 10v1q-6 -2 -8 -2h-1v-1q1 -2 1 -5q0 -1 0.5 -3t0.5 -3q1 -6 1 -10q-1 -1 -2.5 -4t-3.5 -5z" />
    <glyph glyph-name="uniE63A" unicode="&#xe63a;" 
d="M608 822q-116 27 -230 -11t-195 -127.5t-105 -206.5q-4 -20 16 -26l22 -7q21 -7 22 -8q9 -2 16 2t10 9l2 5q21 92 85 161.5t153 98t180 7.5q85 -20 149 -78.5t94 -138.5l-76 -10q-8 -5 -8 -15q0 -8 8 -13l169 -83q5 -2 9 -2q11 1 18.5 9t6.5 19v7q-11 147 -106 260.5
t-240 147.5zM608 822zM925 325l-21 7q-22 8 -23 8q-9 2 -16 -1.5t-9 -8.5l-3 -5q-20 -93 -84.5 -162t-153.5 -98t-179 -8q-85 20 -149 78.5t-95 139.5l76 9q9 6 9 15q-1 9 -8 14l-169 83q-5 1 -9 1q-11 -1 -18.5 -9t-6.5 -18q-1 -5 -1 -8q12 -146 107 -259.5t240 -147.5
q116 -27 230 10.5t195 127t104 206.5v1q4 19 -16 25zM925 325zM400 352q-14 0 -24.5 -10t-10.5 -24.5t10.5 -24.5t24.5 -10h75v-90q0 -14 10.5 -24.5t24.5 -10.5t24 10.5t10 24.5v90h76q14 0 24 10t10 24.5t-10 24.5t-24 10h-76v42h76q14 0 24 10.5t10 24.5t-10 24t-24 10
h-43l63 64q11 10 11 24.5t-10.5 24.5t-24.5 10t-24 -10l-82 -82l-82 82q-10 10 -24.5 10t-24.5 -10t-10 -24.5t10 -24.5l64 -64h-43q-14 0 -24.5 -10t-10.5 -24t10.5 -24.5t24.5 -10.5h75v-42h-75zM400 352z" />
    <glyph glyph-name="uniE63B" unicode="&#xe63b;" 
d="M588 226q-76 -61 -104 -77q-32 -19 -67 -30q-30 -9 -53 -11.5t-38 -3.5q-2 -1 -4 -1h-11q-40 0 -74.5 9.5t-60.5 27.5t-41 45.5t-15 64.5q1 31 17.5 57t42.5 44t58 27t64 8t61 -7.5t56 -15t51 -18.5t46 -19q8 -4 17 -7q10 -4 20 -7q21 26 35 51.5t23.5 46.5t14.5 35.5
t6 19.5h-310v35h146v79h-204v35h204v64q0 6 7.5 10t16.5 6q11 2 24 2h55v-82h210v-35h-210v-79h167v0v0q-5 -32 -17 -68q-10 -30 -29.5 -69.5t-52.5 -81.5q19 -8 51 -22t121 -43t166 -41q45 100 45 210q0 103 -40.5 197.5t-108.5 163t-162.5 109t-198.5 40.5t-198.5 -40.5
t-162.5 -109t-108.5 -163t-40.5 -198t40.5 -198t108.5 -163t162.5 -108.5t198.5 -40q129 0 240 59.5t181 161.5q-66 15 -142 44t-203 86zM187 249q-1 -25 9.5 -43.5t24.5 -28t32 -15t28 -7t18 -1.5q59 -2 123 36q6 4 13 9t13.5 10t14 11t13.5 11.5t12 10.5t10 8.5t7 6.5l3 3
q3 2 5 5q-20 11 -40 21q-92 44 -142 49q-40 4 -70 -4.5t-45 -24.5t-22 -30.5t-7 -26.5z" />
    <glyph glyph-name="uniE63C" unicode="&#xe63c;" 
d="M928 472q0 115 -56 213t-151.5 154.5t-208.5 56.5t-208.5 -56.5t-151.5 -154.5t-56 -213q0 -1 1 -22l-1 -4v-7q0 -53 21.5 -112.5t55 -112t74.5 -103.5t82 -91.5t75 -71.5t55 -48.5t21 -16.5q4 -3 10 -6.5t23 -4t31 10.5q15 11 32 25t57.5 50t75.5 72t77 88t71.5 101.5
t50 108t20.5 111.5v7l-1 4q1 21 1 22zM512 309q-66 0 -113 47.5t-47 115.5t47 115.5t113 47.5t113 -47.5t47 -115.5t-47 -115.5t-113 -47.5z" />
    <glyph glyph-name="uniE63D" unicode="&#xe63d;" 
d="M741 326q-21 -81 -77.5 -133t-128.5 -52q-89 0 -151.5 76.5t-63.5 184.5h430h214q0 117 -58 216t-157 156.5t-216 57.5t-216 -58t-157 -157t-58 -216t58 -216.5t157 -157t216 -57.5q158 0 278 101.5t147 254.5h-217zM535 664q72 0 129 -52t77 -133h-411q20 81 76.5 133
t128.5 52zM246 -52q-79 53 -107 155t-0.5 226t105.5 239q59 87 135 150t153 93.5t153.5 27.5t135.5 -43q61 -41 91.5 -113.5t28.5 -162.5q10 108 -21 195t-102 134q-62 43 -144.5 45t-166 -32.5t-166.5 -104.5t-147 -165q-86 -127 -117.5 -262t-2.5 -245.5t112 -167.5
q92 -60 212 -40t237 109q-103 -68 -205.5 -79t-183.5 41z" />
    <glyph glyph-name="uniE63E" unicode="&#xe63e;" 
d="M908 728q-4 5 -6 7q-20 23 -59 42q-64 30 -158.5 43t-174.5 13q-46 0 -98 -4.5t-114 -15t-112.5 -32.5t-72.5 -53q-45 -60 -50 -151t31 -192q38 -109 119 -211t201 -181q46 -31 96 -56q118 60 210.5 144.5t144.5 173.5t76 178t14.5 165.5t-47.5 129.5zM724 231
q-87 -107 -214 -182v1v335h-307q-15 37 -25 76q-14 61 -9 113.5t28 84.5q4 4 15 10.5t40 16.5t67 17q90 18 191 18v-336h307q-34 -81 -93 -154z" />
    <glyph glyph-name="uniE63F" unicode="&#xe63f;" 
d="M957 810v-522q0 -47 -22 -93.5t-58 -90t-82.5 -82.5t-94.5 -70q-48 -30 -92.5 -50.5t-78.5 -27.5l-11 -2l-10 2q-34 7 -80 27.5t-95 50.5q-50 31 -97 70q-48 39 -85.5 82.5t-60.5 89.5q-23 47 -23 94v522l36 5l410 81l418 -81zM513 820l-5 1l-351 -63v-329h356v391z
M867 429h-354v-468q34 8 74 25q41 17 80 40t75 52q36 28 64 61q28 32 45 67q16 35 16 72v151z" />
    <glyph glyph-name="uniE640" unicode="&#xe640;" 
d="M952 727q1 -5 3.5 -14.5t4 -16t0.5 -12.5q-11 -74 -32 -189q-19 -106 -47 -254q-9 -47 -21.5 -53.5t-57.5 12.5q-36 15 -101 45.5t-83 38.5q-32 15 -45.5 21t-33.5 9.5t-26 3.5t-26 -9t-30 -16.5t-41 -28.5q-29 -21 -283 -194q-12 -8 -20 -12q-25 -11 -37.5 -2t-8.5 36
q15 103 27 150q16 67 16 207q0 84 7 214q0 6 2.5 12.5t7 14.5t6.5 12q4 -2 12 -5.5t14 -7t11 -7.5q48 -45 137.5 -130t128.5 -122q3 -3 45 -34q325 238 444 324q2 2 5.5 3t10 2t11.5 2zM919 650q-2 1 -5 3t-4 3q-47 -34 -227 -167q15 -32 13.5 -41t-24.5 -20q-3 -2 -17.5 -7
t-22 -10.5t-12.5 -15.5q8 -5 22.5 -5.5t24.5 -4.5t14 -17q-5 -15 -17.5 -17.5t-28 -2.5t-24.5 -7q19 -8 97.5 -48.5t129.5 -51.5q27 140 81 409zM379 281q-1 2 -3 6.5t-3 6.5q-53 -20 -60 -23q-3 -2 -9.5 -5.5t-10.5 -5.5t-9.5 -3.5t-10 1.5t-7.5 10q-4 6 -2.5 11t2.5 8t6 6
t8.5 4.5t9 4t8.5 3.5q9 5 26.5 10.5t21.5 6.5q6 3 14 6t18 7.5t17 7.5q-15 15 -44 30.5t-52.5 33t-35.5 46.5q47 -5 49 -6q4 -1 50 -23q-48 64 -110.5 121t-98.5 67q0 -26 1 -79.5t0.5 -94.5t-3.5 -78q-2 -37 -8 -77t-14.5 -92.5t-12.5 -76.5l12 -6q108 74 251 173zM910 656
q1 -1 4 -3t5 -3q-54 -269 -81 -409q-51 11 -129.5 51.5t-97.5 48.5q9 8 24.5 7.5t27.5 2t18 17.5q-4 13 -14 17t-24.5 4.5t-22.5 5.5q5 10 12.5 15.5t22 10.5t17.5 7q23 11 24.5 20t-13.5 41q77 57 227 167zM373 294l6 -13q-35 -24 -120 -83t-131 -90q-11 5 -12 6
q4 25 12.5 77t14.5 92t8 77q3 37 3.5 78t-0.5 94.5t-1 79.5q36 -10 98.5 -67t110.5 -121q-46 22 -50 23q-3 1 -49 6q12 -29 35.5 -47t52.5 -33t44 -30q-7 -3 -17 -7.5t-18 -7.5t-14 -6q-4 -1 -21.5 -6.5t-26.5 -10.5q-3 -1 -8.5 -3.5t-9 -4t-8.5 -4.5t-6 -6t-2.5 -8t2.5 -11
q3 -7 7.5 -10t10 -1.5t9.5 3.5t10.5 5.5t9.5 5.5q7 3 60 23z" />
    <glyph glyph-name="uniE641" unicode="&#xe641;" horiz-adv-x="1026" 
d="M866 338q40 80 40 171q0 104 -52 193.5t-142.5 141.5t-197.5 52t-198 -52t-143.5 -141t-52.5 -194q0 -89 40 -171l-160 -272q101 -21 203 -42l136 -152l147 250q4 0 12.5 -1t13.5 -1q16 0 26 2l147 -250q69 77 136 152l203 42zM334 -11q-49 46 -96 91l-131 37l93 158
q83 -111 219 -142zM513.5 192q-86.5 0 -160 43t-116.5 116.5t-43 160.5t43 161t116.5 116.5t160 42.5t160.5 -43t117 -116.5t43 -160.5t-43 -161t-117 -116.5t-160.5 -42.5zM789 80q-21 -20 -45 -42.5t-38 -35.5l-13 -13l-85 144q133 34 219 142l93 -158q-66 -18 -131 -37z
M513.5 736q-92.5 0 -158 -66t-65.5 -158t65.5 -158t158 -66t158.5 66t66 158t-66 158t-158.5 66zM514 352q-66 0 -113 47t-47 113t47 113t113 47t113 -47t47 -113t-47 -113t-113 -47z" />
    <glyph glyph-name="uniE642" unicode="&#xe642;" 
d="M734 491q-1 1 -5 6t-6 8l117 233l-30 29h-29h-532h-29l-30 -29l118 -233q-88 -87 -88 -210q0 -122 86.5 -208.5t208.5 -86.5t208.5 86.5t86.5 208.5q0 110 -75 195q0 1 -1 1zM279 708h472l-73 -167q-75 49 -163 49t-162 -49zM515 59q-98 0 -167 69t-69 167t69 167t167 69
t167 -69t69 -167t-69 -167t-167 -69z" />
    <glyph glyph-name="uniE643" unicode="&#xe643;" 
d="M425 -65q-164 -1 -263 98t-99 254q0 68 26 133t68.5 114.5t94.5 86t107 55.5q92 30 187 29q14 0 23.5 -9.5t9.5 -23.5q-1 -14 -10 -23t-23 -9q-84 1 -166 -26q-99 -33 -175.5 -125.5t-76.5 -201.5q0 -128 80 -208t217 -80q63 1 115.5 13t84 28.5t54 36t31 32.5t9.5 20
q0 5 -19 31q-11 15 -17 24.5t-13.5 28.5t-8 35t7 37.5t25.5 40.5q24 26 49.5 39t51.5 13t40.5 -2.5t37.5 -8.5q14 -4 20 -6q6 22 -5.5 64.5t-48.5 87.5q-9 10 -7.5 23.5t12 22t23.5 7t22 -11.5q33 -40 51.5 -85t19 -79t-8.5 -61q-17 -34 -50 -34q-16 0 -46 9q-26 8 -39.5 10
t-34 -5t-39.5 -27q-13 -14 -14.5 -26t4 -24t21.5 -34q31 -43 31 -70q0 -18 -12.5 -41.5t-41.5 -50.5t-69 -49.5t-102 -37t-134 -14.5zM377 257q-42 0 -53 26q-10 22 9 42q10 11 16 22.5t7.5 19t3.5 20.5q7 49 34.5 74.5t66 23t69.5 -31.5q36 -33 36 -74q0 -35 -27 -59
q-33 -31 -80 -47t-82 -16zM454 421q-9 0 -16 -6q-11 -10 -15 -37q-5 -39 -22 -58q29 3 60.5 18.5t37.5 34.5q2 6 -2 16.5t-11 16.5q-16 15 -32 15zM577 455q-10 23 -37 37q-8 4 -13.5 10t-6.5 10l-2 5q-4 16 8 31q23 29 46 51q39 37 144.5 117.5t140.5 80.5q16 3 29 -14
q3 -4 5 -10t2 -9v-4q0 -24 -55.5 -94t-99.5 -116.5t-57 -58.5q-42 -40 -63 -50q-14 -5 -23 -2t-14 10zM596 532q3 -3 7 -6q6 -6 9 -10q12 9 25 22q46 42 117 126q-92 -69 -138 -112q-11 -10 -20 -20z" />
    <glyph glyph-name="uniE644" unicode="&#xe644;" 
d="M557.5 854q-114.5 0 -212 -56.5t-154.5 -154t-57 -212.5q0 -2 1 -5q-92 -94 -92 -148q0 -37 27.5 -56t59.5 -20l42 -9l8 -204q0 -31 22 -53t54 -22h155q12 0 21 8.5t9 21.5t-9 21.5t-21 8.5h-155q-7 0 -11.5 4.5t-4.5 11.5l-9 251l-90 21h-3h-4q-11 1 -20.5 5t-9.5 11
q0 13 24.5 47t57.5 66q13 13 8 31q1 4 1 9q0 98 48.5 181.5t132 132t182 48.5t182 -48.5t132 -132t48.5 -181.5q0 -13 9 -21.5t21.5 -8.5t21 8.5t8.5 21.5q0 115 -56.5 212.5t-154 154t-212 56.5z" />
    <glyph glyph-name="uniE645" unicode="&#xe645;" 
d="M603 715q-81 0 -138 -53t-57 -127q0 -41 20 -70.5t56 -42.5q33 -12 109 -12h20q76 0 109 12q37 13 56.5 42.5t19.5 70.5q0 74 -57 127t-138 53zM613 471h-20q-26 0 -40.5 0.5t-33 4t-28 10t-16.5 19t-7 30.5q0 49 39.5 84t95.5 35t95.5 -35t39.5 -84q0 -18 -7 -30.5
t-16.5 -19t-28 -10t-33 -4t-40.5 -0.5zM1007 431q0 89 -34.5 171t-93.5 141t-140 94t-170 35q-116 0 -216 -57.5t-159 -156.5t-62 -216l-83 -84q-20 -20 -28 -47.5t0 -54.5q10 -33 36 -52.5t59 -19.5h16v-191q0 -40 28 -68.5t68 -28.5h149q13 0 22 9t9 21.5t-9 21.5t-22 9
h-149q-15 0 -25.5 10.5t-10.5 25.5v252h-76q-26 0 -36 24t9 43l103 105h1q0 2 -0.5 6.5t-0.5 7.5q0 103 50.5 190.5t137.5 138.5t189.5 51t189.5 -51t137.5 -138.5t50.5 -190.5q0 -3 -0.5 -7.5t-0.5 -6.5h1v-25q0 -13 8.5 -22t21 -9t21.5 9t9 22v25v6v8z" />
    <glyph glyph-name="uniE646" unicode="&#xe646;" 
d="M767 819l-1 1q-12 6 -24.5 3t-18.5 -15l-17 -29q-7 -11 -3.5 -24t14.5 -19l2 -1q11 -7 23.5 -3.5t19.5 14.5l17 30q7 11 3.5 23.5t-15.5 19.5zM286 773l-18 31q-6 11 -18.5 14t-22.5 -3l-3 -2q-12 -6 -15 -18.5t3 -23.5l18 -31q6 -11 18.5 -14t23.5 3l3 2q11 6 14.5 18.5
t-3.5 23.5zM621 -61h-217q-11 0 -20.5 -7t-11.5 -18q-2 -15 7 -26t24 -11h217q24 0 31 21q5 16 -4.5 28.5t-25.5 12.5zM514 891h-4q-12 0 -21.5 -9t-9.5 -22v-35q0 -12 9.5 -21.5t21.5 -9.5h4q13 0 22 9.5t9 21.5v35q0 13 -9 22t-22 9zM56 565l31 -18q11 -6 23 -3t19 14l1 2
q7 12 3.5 24.5t-14.5 18.5l-31 18q-11 6 -23.5 3t-18.5 -14l-2 -2q-6 -12 -2.5 -24.5t14.5 -18.5zM489 734q-135 -8 -231 -105t-104 -232q-6 -106 45.5 -196.5t140.5 -139.5v-12v-16q0 -19 14 -33t33 -14h16h218h16q19 0 33 14t14 33v16v12q85 47 136 131t51 184
q0 102 -51.5 186.5t-140 131.5t-190.5 40zM644 111h-23v-10v-52h-218v62h-23q-83 41 -128.5 123.5t-33.5 179.5q13 101 86 173.5t174 83.5q88 9 164.5 -28.5t121 -109t44.5 -157.5t-45 -157t-119 -108zM936 621l-30 -17q-12 -7 -15.5 -19.5t3.5 -24.5l1 -1q7 -11 19 -14.5
t24 2.5l30 18q11 6 14.5 18.5t-2.5 24.5l-1 1q-7 11 -19.5 14.5t-23.5 -2.5zM691 464q0 -3 1 -7v0q1 -5 4 -9q3 -5 7 -12l4 -6q7 -7 16 -7q10 0 16.5 7t6.5 16q0 2 -5 18q-1 4 -4.5 9t-6.5 8t-4 3q-5 4 -11 4q-8 0 -15.5 -7t-8.5 -17zM702 519q1 12 -7 19q-58 69 -154 88v-1
l-5 1q-10 0 -17 -7t-7 -17q0 -14 14 -19v-1q81 -14 132 -74l3 -3q3 -3 8 -6.5t9 -3.5q9 0 16 7t8 17z" />
    <glyph glyph-name="uniE647" unicode="&#xe647;" 
d="M778 88q72 41 114.5 107t42.5 143q0 97 -68 176q5 33 5 59q0 3 -2 27q60 -50 93.5 -116.5t33.5 -141.5q0 -84 -42 -157.5t-115 -123.5v-178l-175 108q-39 -6 -75 -6q-86 0 -149 30t-124 89q29 -1 37 -1q24 0 52 2q51 -35 89 -50t95 -15q39 0 81 9l107 -72v111zM433 165
q-55 0 -106 9l-176 -103v178q-126 107 -126 281q0 97 54.5 179t148.5 130t205 48q93 0 179.5 -47.5t141.5 -131t55 -178.5q0 -99 -46.5 -181.5t-133.5 -133t-196 -50.5zM320 237q42 -9 113 -9q140 0 226.5 86t86.5 212q0 80 -45.5 149.5t-118 109t-149.5 39.5
q-146 0 -245.5 -87t-99.5 -211q0 -148 125 -249v-112zM605.5 479q-19.5 0 -33.5 14t-14 33t14 33t33.5 14t33 -14t13.5 -33t-13.5 -33t-33 -14zM417.5 479q-19.5 0 -33.5 14t-14 33t14 33t33.5 14t33 -14t13.5 -33t-13.5 -33t-33 -14zM229.5 479q-19.5 0 -33.5 14t-14 33
t14 33t33.5 14t33 -14t13.5 -33t-13.5 -33t-33 -14z" />
    <glyph glyph-name="uniE648" unicode="&#xe648;" 
d="M765 449h-509v163q0 58 20 109t54.5 89.5t81 60.5t99.5 22t99.5 -22t81 -60.5t54 -89.5t19.5 -109v-163zM511 63q-52 0 -98.5 15.5t-81 44t-55 68.5t-20.5 91v70v31h509v-101q0 -41 -20 -80t-55 -70t-81 -50t-98 -19zM966 384q29 0 42.5 -7t13.5 -25q0 -22 -14 -28
t-35 -6h-18q-5 -49 -17 -98q-11 -43 -30 -91.5t-49 -91.5q-57 -79 -148 -121.5t-201 -42.5q-109 0 -195.5 34.5t-153.5 116.5q-34 41 -53.5 92t-29.5 96q-11 52 -16 105h-12q-34 1 -41.5 9.5t-7.5 28.5q0 19 16.5 24t41.5 5q26 1 46.5 0.5t32.5 0.5q22 0 33 -3t15.5 -9
t4.5 -18v-25q0 -9 -3.5 -28.5t-1.5 -48t12.5 -65.5t38.5 -82q26 -44 64 -67t77 -32.5t74 -10t58 -0.5q36 1 70 2.5t65.5 9.5t60 25t54.5 50q27 35 41 68.5t19.5 63.5t6 56t1.5 47q1 28 3.5 42t8.5 19t17 5h30h79z" />
    <glyph glyph-name="uniE649" unicode="&#xe649;" 
d="M946 182h-62v310q0 113 -79.5 202t-196.5 120q-6 1 -11 2q-2 0 -2 1q0 37 -22.5 58t-58.5 21q-37 0 -63.5 -21t-26.5 -59l-17 -5q-113 -33 -190 -120.5t-77 -198.5v-1v-309h-62q-34 0 -48 -14t-14 -48t14 -48t48 -14h868q34 0 48 14t14 48t-14 48t-48 14zM512 -128
q47 0 85.5 33t38.5 91h-248q0 -54 39 -89t85 -35z" />
    <glyph glyph-name="uniE64A" unicode="&#xe64a;" 
d="M102 120h820v-128h-820v128zM163 169q0 24 27 24h648q10 0 17.5 -6.5t7.5 -17.5v-56q0 -5 -6 -5h-689q-5 0 -5 5v56zM827 159h-628v386v3q15 57 62 114q41 49 96 77q69 36 156 36q89 0 158 -36q56 -29 96 -78q46 -57 59 -115l1 -3v-384zM267 207l497 -2v332
q-12 41 -49 86q-34 39 -86.5 63t-117.5 24q-64 0 -115.5 -24.5t-86.5 -64.5q-36 -42 -49 -85l-1 -329h8zM382 520l-58 1q0 6 1.5 16t12 33.5t28.5 41.5t39 27.5t30.5 11t14.5 1.5l1 -48l-1 -11q-18 0 -43 -25q-25 -24 -25 -48zM324 479h57v-181h-57v181z" />
    <glyph glyph-name="uniE64B" unicode="&#xe64b;" horiz-adv-x="1025" 
d="M896 671h-192v128q0 26 -19 45t-45 19h-256q-26 0 -45 -19t-19 -45v-128h-192q-53 0 -90.5 -37.5t-37.5 -89.5v-511q0 -53 37.5 -90.5t90.5 -37.5h768q53 0 90.5 37.5t37.5 90.5v511q0 52 -37.5 89.5t-90.5 37.5zM384 799h256v-128h-256v128zM768 224h-192v-191h-128v191
h-192v128h192v192h128v-192h192v-128zM768 224z" />
    <glyph glyph-name="uniE64C" unicode="&#xe64c;" 
d="M948 547v4q-1 4 -1 6q-3 17 -6 29q-13 46 -45 82q-1 2 -3 4q-30 34 -72.5 54t-90.5 20q-99 0 -164 -74q-56 -63 -56 -146q0 83 -56 146q-65 74 -164 74q-48 0 -90.5 -20t-73.5 -54q-2 -3 -2 -4q-32 -36 -45 -82q-4 -14 -6 -29q0 -3 -1 -10q-1 -10 -1 -21q0 -12 1 -23
q6 -77 54 -164.5t113.5 -155t139.5 -112.5t131 -45t131 45t139.5 112.5t113.5 155t54 164.5q1 11 1 23q0 11 -1 21z" />
    <glyph glyph-name="uniE64D" unicode="&#xe64d;" 
d="M960 512q0 104 -71 180t-179 76q-41 0 -76.5 -16t-57 -38.5t-37 -45t-21.5 -38.5l-6 -16q-2 7 -6.5 17t-21 36.5t-37 47t-56.5 37t-77 16.5q-111 0 -180.5 -70.5t-69.5 -185.5q0 -49 15.5 -98t41.5 -90.5t59.5 -80.5t70.5 -71t74 -59.5t70.5 -48t59.5 -35t41 -21.5l16 -8
q9 4 25.5 12t63 35.5t88.5 57.5t94 76.5t89 94.5t62.5 110.5t25.5 125.5z" />
    <glyph glyph-name="uniE64E" unicode="&#xe64e;" 
d="M1017 469q1 14 1 27q0 109 -77 186t-186 77q-79 0 -144 -43t-96 -113q-32 70 -96.5 113t-143.5 43q-110 0 -187 -77t-77 -186q0 -13 2 -27q0 -5 1 -15t11.5 -42t28 -65.5t56 -83t89.5 -97.5t134 -105.5t185 -111.5q102 54 185 111.5t133.5 105.5t88 97.5t54.5 83
t26.5 65.5t10.5 42t1 15zM282 701q18 0 30.5 -12.5t12.5 -30.5t-12.5 -30.5t-30.5 -12.5t-30.5 12.5t-12.5 30.5t12.5 30.5t30.5 12.5zM147 378q-6 -2 -12 -2q-15 0 -27 9t-17 24q-9 34 -10 67q-1 30 5 57.5t14.5 44.5t20 32t16.5 19.5t9 7.5q14 12 32.5 9.5t30 -17.5
t9.5 -33t-17 -30q-4 -3 -9.5 -9.5t-13 -27t-7.5 -45.5q0 -24 7 -51q5 -18 -4 -34t-27 -21z" />
    <glyph glyph-name="uniE64F" unicode="&#xe64f;" 
d="M510 64q-139 1 -256 71.5t-190 187.5q-3 3 -11 13.5t-11 15t-7.5 12.5t-6 15.5t-1.5 16.5q0 38 26.5 64.5t64.5 26.5q26 0 49 -14l7 -6q6 -5 14 -15q2 -3 20 -34q47 -80 127 -128.5t176 -48.5q96 -1 176.5 46.5t128.5 127.5q4 7 8 14.5t9 18.5t10 20q2 2 2 2.5t2 2.5l6 5
q24 17 53 17q38 0 64.5 -27t26.5 -65q0 -39 -28 -68q-79 -125 -197.5 -198t-261.5 -73v0zM510 413q-73 0 -124 52t-51 124.5t51.5 124t124.5 51t124.5 -52t51 -124t-52 -124t-124.5 -51.5v0zM511 413z" />
    <glyph glyph-name="uniE650" unicode="&#xe650;" 
d="M552 881q-98 0 -181.5 -48t-132 -131t-48.5 -181q0 -45 24.5 -105.5t49.5 -98.5l25 -38q11 -17 18 -11l3 3l23 18q7 4 8 12t-5 14l-38 49q-5 7 -3 8.5t9 -3.5l49 -25q19 -9 22 -16q1 -3 8.5 -5t15.5 1q16 7 33 13q23 8 46 11q44 6 66 6q48 -1 103 -9q12 -2 26.5 -6.5
t23.5 -8.5l8 -4q19 -8 21 -3q2 3 9.5 10t14.5 11l51 26q7 5 8.5 3.5t-2.5 -8.5l-42 -52q-6 -7 -6 -15.5t6 -15.5q26 -29 34 -19q5 6 12.5 17t27.5 42.5t35 61t27.5 68t12.5 69.5q0 98 -48.5 181t-132 131t-181.5 48zM254 559q0 4 15 18l64 40q7 5 11.5 2.5t3.5 -11.5l-4 -36
q-1 -9 -7.5 -15t-14.5 -6h-48q-6 0 -10.5 1.5t-7 3.5t-2.5 3zM270 462q-15 14 -16 19q0 2 2.5 4t7 4t10.5 2h48q8 0 14.5 -6t7.5 -14l4 -40q1 -8 -3 -11t-11 2zM380 723q-9 -19 -28 -28l-51 -27q-7 -5 -8.5 -3.5t3.5 8.5l107 105q7 5 8.5 3.5t-3.5 -8.5zM522 388
q0 -9 -6 -14t-15 -4l-60 10q-8 2 -15.5 9t-9.5 15l-12 67q-1 8 4.5 14t13.5 6h79q9 0 15 -6t6 -14v-83zM522 572q0 -9 -6 -15t-15 -6h-79q-8 0 -13.5 6t-4.5 15l11 63q2 8 9.5 15.5t15.5 9.5l61 10q9 1 15 -4.5t6 -13.5v-80zM522 752q0 -9 -6 -15.5t-15 -6.5l-33 -4
q-9 -1 -11.5 3.5t2.5 11.5l39 62q15 14 18 15q1 0 2 -2.5t2.5 -7.5t1.5 -10v-46zM835 577q15 -15 15 -19q0 -1 -2.5 -2.5t-7.5 -3t-10 -1.5h-49q-8 0 -14.5 6t-7.5 15l-4 36q-1 9 3.5 11.5t11.5 -2.5zM582 798q0 20 3 20q5 -1 20 -15l39 -62q5 -7 2.5 -11.5t-11.5 -3.5
l-32 4q-9 0 -15 6.5t-6 15.5v46zM582 652q0 8 6 13.5t15 4.5l60 -10q8 -2 15.5 -9.5t9.5 -15.5l11 -63q1 -9 -4.5 -15t-13.5 -6h-78q-9 0 -15 6t-6 15v80zM687 404q-2 -8 -9.5 -15t-15.5 -9l-59 -10q-9 -1 -15 4t-6 14v83q0 8 6 14t15 6h78q8 0 13.5 -6t4.5 -14zM695 774
q-5 7 -4 8t8 -4l109 -106q5 -7 4 -8.5t-8 3.5l-53 28q-19 9 -28 28zM850 482q-1 -5 -16 -19l-65 -41q-7 -5 -11 -2t-3 11l4 40q1 8 7.5 14t14.5 6h49q5 0 10 -2t7.5 -4t2.5 -3zM117 -42l1 2q6 12 12 22.5t21.5 36.5t32 48t41 53t51.5 55t59.5 49.5t70 41.5t78 27t87.5 9.5
t96 -14.5q34 -12 44.5 -27t0.5 -27t-29 -20t-37 -7q-25 1 -68.5 5t-56.5 4q-29 1 -38 -19q-9 -22 21 -36q17 -8 46 -9q124 -11 218.5 21.5t132.5 100.5q14 24 32 37t33 14t26 -1t16 -6q10 -11 -47.5 -97.5t-81.5 -112.5q-12 -14 -24 -22.5t-46.5 -19t-82.5 -12.5
q-59 -3 -120 -3t-95 -1.5t-65 -6.5q-13 -2 -23 -15t-14 -25.5t-9.5 -35t-7.5 -29.5q-10 -31 -20 -41t-41 -10h-188q-40 0 -44.5 15.5t18.5 55.5z" />
    <glyph glyph-name="uniE651" unicode="&#xe651;" horiz-adv-x="1252" 
d="M626 786q-211 0 -381 -118.5t-245 -308.5q75 -190 245 -308t380.5 -118t381 118t245.5 308q-75 190 -245.5 308.5t-380.5 118.5zM626 75q-118 0 -201.5 83.5t-83.5 201t83.5 201t201.5 83.5t201 -83.5t83 -201t-83 -201t-201 -83.5zM626 530q-71 0 -121 -50t-50 -120.5
t50 -120.5t121 -50t120.5 50t49.5 120.5t-49.5 120.5t-120.5 50z" />
    <glyph glyph-name="uniE652" unicode="&#xe652;" 
d="M1009 412q-6 8 -16 20.5t-38 43.5t-58.5 59.5t-75.5 62.5t-91 58.5t-103 40.5t-113 16t-113.5 -16.5t-103 -40.5t-91 -58t-75.5 -62t-58.5 -59.5t-38.5 -44t-16 -20.5q-9 -13 -9 -28t9 -28q6 -8 16 -21t38 -43.5t58.5 -59.5t76 -62.5t91 -58t103 -41t113.5 -16.5
t113 16.5t103 41t91 58t75.5 62.5t58.5 59.5t38 43.5t16 21q9 13 9 28t-9 28zM435 445q-26 -36 -12 -93q5 -19 -5 -35.5t-29 -20.5q-5 -2 -11 -2q-16 0 -29 10t-17 26q-25 104 32 176q25 32 61 50.5t65 18.5q19 0 33 -13t13.5 -32.5t-14 -33t-32.5 -13.5q-9 -1 -26 -11
t-29 -27zM611.5 223q-24.5 0 -42 17.5t-17.5 42t17.5 41.5t42 17t41.5 -17t17 -41.5t-17 -42t-41.5 -17.5zM116 384q47 56 114.5 114t146.5 92q-53 -34 -84.5 -89.5t-31.5 -121.5q0 -54 22 -102t61 -83q-120 62 -228 190zM659 182q45 35 71.5 86.5t26.5 110.5q0 72 -38 132
t-100 91q47 -16 94.5 -44.5t86 -62.5t64.5 -59.5t47 -51.5q-120 -143 -252 -202z" />
    <glyph glyph-name="uniE653" unicode="&#xe653;" 
d="M498 514l-41 -121q-2 -6 1.5 -11t10.5 -5h85q6 0 9.5 5t1.5 11l-44 121q-3 8 -11.5 8t-11.5 -8zM792 704h-560q-37 0 -64 -26.5t-27 -63.5v-379q0 -37 27 -64t64 -27h187l41 -70q17 -31 52 -31t52 31l41 70h187q37 0 64 27t27 64v379q0 37 -26.5 63.5t-64.5 26.5z
M607 249l-12 35q-8 22 -31 22h-112q-21 0 -27 -19l-13 -38q-5 -14 -17 -23t-27 -9q-24 0 -38 20t-5 43l109 293q9 24 29.5 38.5t46.5 14.5q25 0 45.5 -14.5t29.5 -37.5l111 -294q8 -23 -5.5 -43t-38.5 -20h-1q-15 0 -27.5 9t-16.5 23z" />
    <glyph glyph-name="uniE654" unicode="&#xe654;" horiz-adv-x="1028" 
d="M375 382q24 0 50.5 -6.5t41.5 -13.5l15 -6l27 26q-54 27 -107 27q0 7 -1 18.5t-6 45t-14 64t-27.5 68t-43 64t-65 45t-89.5 18.5q44 -11 79.5 -35t58 -52.5t39 -64.5t24 -65.5t12.5 -61t5.5 -46t0.5 -25.5zM877 617l94 94q6 5 6 13t-5.5 13.5t-13.5 5.5t-13 -6l-94 -93
q-68 65 -174 105t-206.5 49t-188 -6.5t-125.5 -54.5q1 0 11 0.5t21 0.5t27.5 -0.5t33.5 -2.5t36.5 -5t38.5 -8.5t38 -13t36.5 -19t31.5 -25.5q24 -24 39.5 -46t19.5 -36t5 -25t-1 -16l-2 -4q7 2 32.5 -6t64 -29.5t68.5 -50.5l-432 -431l-58 -58v0l-3 -3q-21 -18 -49 -17
t-48 20.5t-20.5 47.5t17.5 48v1q5 5 5 13t-5.5 13.5t-13 5.5t-13.5 -6q-3 -2 -4 -6q-26 -31 -24 -72.5t32 -70.5q31 -32 76 -32t77 32q4 3 10 12q4 2 7 4l472 471q24 -29 44 -68.5t28 -63.5l7 -24q5 -1 13.5 -2.5t32.5 -9t45.5 -17.5t46 -29t40.5 -41q23 -49 31 -90.5
t5 -61.5t-11 -44q37 38 52.5 117t6.5 170t-47 189.5t-100 168.5zM744 224h-100v-110h-110v-100h110v-110h100v110h111v100h-111v110z" />
    <glyph glyph-name="uniE655" unicode="&#xe655;" 
d="M624 610q38 -24 110 -72q-27 -29 -30 -32q-8 -6 -18 -7q-6 0 -19 1t-20 1q-3 -1 -6 -2.5t-6.5 -5t-5.5 -4.5q2 -1 10 -7t18 -12.5t14 -8.5q10 -8 16 -20l19 -44q2 1 5 3t8.5 8t5.5 12q0 12 2 34q1 9 5 12q5 4 39 30q8 -13 8 -14q5 -10 14.5 -28.5t17 -33.5t13.5 -28
q6 -11 12 -12q7 -1 14.5 7t6.5 16q-10 88 -16 131q-3 19 9 29q44 38 47 67q2 24 -33 9q-2 -1 -5 -2q-21 -9 -51 -30q-11 -9 -24 -5q-18 4 -38.5 9t-45 11t-38.5 10q-19 4 -25 1t-13 -23v0zM652 365q4 2 7 10q7 17 -4 37.5t-30.5 30.5t-34.5 0q-9 -7 -30.5 -27t-33 -29.5
t-29.5 -24.5t-35 -26t-35 -21q-92 -51 -231 -78q-20 -1 -24 9.5t13 22.5q7 5 3 5q-14 0 -38 -20q-17 -14 -21 -29q0 -4 1 -8t6.5 -10.5t14 -11.5t26.5 -7.5t42 -1.5q109 11 175 34q77 28 133 59t125 86v0zM569 747v0v0zM565 747h1h2h1h-1h-3v0zM861 370q-5 -1 -7.5 -2t-6 -6
t-6.5 -16q-5 -20 -17 -42q-11 -12 -19.5 -15t-25.5 2q-23 19 -47 26t-41.5 0.5t-30.5 -20.5t-13 -37t11 -50q20 -46 -10 -72q-25 -21 -51 -6q-21 13 -25 46q5 43 -11 64t-39.5 18.5t-47.5 -19t-34 -40.5q-13 -23 -17.5 -31t-14.5 -20.5t-17 -15t-18 -2.5t-25 6
q-29 19 -52 43q-27 -6 -56 -6h-8q24 -33 39 -46q50 -50 115.5 -77t137.5 -27q116 0 209 67t131 173h-1q12 33 18 67l4 26q-7 14 -24 12v0zM204 284q14 0 19 13.5t3.5 29.5t0.5 27q3 25 13.5 45.5t28 35.5t45.5 14t61 -21l17 -12q39 -20 70 -12q75 18 73 137q0 49 39 82.5
t72 28.5q0 1 4 0t10 0.5t12 4t11 9t6 16.5q0 10 -2 18t-4 11l-3 3l-7 4q-7 4 -14 7t-19.5 7.5t-30.5 8t-41 6.5q-27 2 -44 2h-1q-98 0 -181.5 -48t-132 -131t-48.5 -181q0 -25 1.5 -40.5t5.5 -32t13 -24.5t23 -8v0zM204 284z" />
    <glyph glyph-name="uniE656" unicode="&#xe656;" horiz-adv-x="1035" 
d="M1008 488l-106 95h1v45v159q0 28 -20 48t-48.5 20t-48.5 -20t-20 -48v-83l-184 165q-27 27 -64.5 27t-64.5 -27l-426 -381q-27 -26 -27 -64t27 -64l104 -95v-302q0 -38 26.5 -64.5t64.5 -26.5h590q37 0 64 26.5t27 64.5v302l105 95q27 26 27 64t-27 64zM675.5 469
q18.5 0 32 -13t13.5 -32t-13.5 -32t-32 -13t-32 13t-13.5 32t13.5 32t32 13zM380.5 469q18.5 0 32 -13t13.5 -32t-13.5 -32t-32 -13t-32 13t-13.5 32t13.5 32t32 13zM785 218q-17 -97 -92.5 -161t-175.5 -64t-175.5 64t-92.5 160q-1 2 -1 3q0 7 7 11.5t16 4.5t16 -4.5
t7 -10.5v-1q16 -79 78.5 -130.5t144 -51.5t144 51.5t78.5 130.5l1 2q1 3 3.5 6.5t6.5 5.5q6 2 12 2q11 0 17.5 -4.5t5.5 -13.5z" />
    <glyph glyph-name="uniE657" unicode="&#xe657;" 
d="M825 416q-2 0 -7 -0.5t-6 -0.5q7 44 8 85v-1q0 1 0.5 3.5t0.5 4.5q-3 70 -57 123t-137.5 79.5t-183.5 27.5q-100 -1 -184 -27.5t-137.5 -79.5t-57.5 -123q1 -1 1 -4v-4q3 -128 54 -236t137 -170.5t187 -62.5q82 0 155.5 43t126.5 119q40 -45 100 -45q56 0 95.5 39
t39.5 95t-39.5 95.5t-95.5 39.5zM666 402q-91 -52 -223 -52t-224 52q-40 23 -61 50.5t-20 54.5q-1 27 20 54.5t61 50.5q92 52 224 52t223 -52q41 -23 61.5 -50.5t20.5 -54.5t-20.5 -54.5t-61.5 -50.5zM825 220q-21 0 -37 13t-21 33q14 31 26 66q16 11 32 11q26 0 44 -18
t18 -43.5t-18 -43.5t-44 -18z" />
    <glyph glyph-name="uniE658" unicode="&#xe658;" 
d="M997 341l-117 408q-7 23 -31 26q-24 2 -36 -19l-211 -395q-37 22 -78 35q45 27 71.5 73.5t26.5 100.5q0 85 -59.5 144.5t-144 59.5t-144 -59.5t-59.5 -144.5q0 -54 26 -100t70 -73q-113 -34 -185.5 -130t-72.5 -218v-72h725v72q0 79 -31 148t-87 120l49 91l239 -111
q5 -2 10 -3h5q15 0 25.5 10.5t10.5 25.5q0 6 -2 11z" />
    <glyph glyph-name="uniE659" unicode="&#xe659;" 
d="M554 157q9 -1 18 3l374 197q9 5 12.5 15.5t-1.5 20t-15.5 12.5t-19.5 -2l-367 -193l-406 87q-18 4 -28 19.5t-6 33t19.5 27.5t33.5 7q391 -84 392 -84q6 0 12 3l374 197q9 5 12.5 15.5t-1.5 20t-15.5 12.5t-19.5 -2l-367 -193l-406 87q-18 4 -28 19.5t-6 33.5t19.5 27.5
t33.5 6.5q366 -78 367 -78q6 0 13 3l94 48q93 49 187 98l94 48q19 10 17.5 20t-22.5 14l-364 72q-21 4 -49.5 0t-47.5 -13l-337 -166q-7 -4 -12 -8q-35 -22 -44 -62q-5 -25 3 -49.5t27 -41.5q-23 -21 -30 -52q-5 -25 3 -49.5t27 -41.5q-23 -21 -30 -52q-8 -39 13.5 -72.5
t60.5 -41.5l419 -89q11 1 15 3l374 197q9 5 12.5 15.5t-1.5 20t-15.5 12.5t-19.5 -2l-367 -193l-406 87q-18 3 -28 18.5t-6 33.5t19.5 28t33.5 6q385 -82 386 -83zM532 666l174 -35l-76 -36l-175 35z" />
    <glyph glyph-name="uniE65A" unicode="&#xe65a;" 
d="M512 887q-102 0 -195 -40t-160.5 -107.5t-107.5 -160.5t-40 -195t40 -195t107.5 -160.5t160.5 -107.5t195 -40t195 40t160.5 107.5t107.5 160.5t40 195t-40 195t-107.5 160.5t-160.5 107.5t-195 40zM499 0q-237 171 -248 308v29q4 55 33 87t64 36q12 1 23 1
q34 0 55.5 -12.5t48.5 -44.5l24 -29l23 29q31 36 56.5 48t70.5 8q35 -4 64 -35.5t34 -84.5v-29q-11 -140 -248 -311zM545 -43q251 184 264 351v34q-7 80 -52.5 127t-101.5 53q-56 5 -91.5 -9t-64.5 -43q-30 29 -65.5 43t-91.5 9q-56 -6 -101.5 -53.5t-51.5 -128.5v-34
q13 -164 258 -345q-155 24 -259 144t-104 279q0 116 57.5 214.5t156 156t214.5 57.5t214.5 -57.5t156 -156t57.5 -214.5q0 -111 -52.5 -206t-143 -153.5t-199.5 -67.5z" />
    <glyph glyph-name="uniE65B" unicode="&#xe65b;" 
d="M941 537q0 12 -3 28q-5 27 -22 35.5t-54 9.5h-210h-517q-1 0 -18.5 0.5t-29 -0.5t-20.5 -5q-7 -2 -11.5 -5t-8 -7t-5 -6.5t-2 -9.5t-0.5 -11v-14v-16v-228v-227v-12q4 -34 16 -55t40 -32q5 -2 7 -8q19 -48 68.5 -61.5t89.5 19.5q4 4 9.5 13t7.5 15l8 20q5 13 5 15h6h398
q7 0 8 -3q15 -33 40.5 -58t53.5 -25q32 1 56.5 18.5t35.5 47.5q2 5 6 6q29 12 37.5 34.5t8.5 63.5v458zM326 177q0 -23 -12.5 -33t-29.5 -10q-16 1 -26.5 12.5t-11.5 27.5v3v262q0 18 12 33t28 15q12 -1 26 -13t14 -28v-4v-6v-40v-48v-40v-66v-65zM737 177q0 -19 -12 -30.5
t-30 -11.5q-19 0 -29.5 13.5t-10.5 28.5v132v132q0 18 12 32t29 13q21 0 31 -15t10 -31v-99v-164zM283 651q12 0 19 1.5t15 9.5t9 24q1 3 0.5 25t-0.5 25q0 19 7 28t24 9h268q17 0 23.5 -9t6.5 -29v-21v-28q0 -7 1 -11q6 -21 39 -25q13 -1 27 10t15 23v64q0 44 -33 77
t-78 33h-130h-169h-1q-74 -24 -81 -110q-3 -44 0 -66q1 -11 12 -20.5t26 -9.5z" />
    <glyph glyph-name="uniE65C" unicode="&#xe65c;" 
d="M286 286q59 0 97.5 38.5t38.5 97.5q0 58 -41.5 97.5t-94.5 39.5q-54 0 -101 -40t-47 -97q0 -58 43.5 -97t104.5 -39zM842 570h-374v-329h-375v490h-91v-763h91v136h840v-136h91v409q0 78 -53 135.5t-129 57.5z" />
    <glyph glyph-name="uniE65D" unicode="&#xe65d;" 
d="M975 466l-123 109v11v151q0 26 -18 44.5t-44 18.5t-44 -18.5t-18 -44.5v-52l-161 143q-24 24 -57.5 24t-57.5 -24l-403 -352q-24 -24 -24 -56t24 -56l111 -45v-323q0 -33 23.5 -56.5t56.5 -23.5h538q33 0 56 23.5t23 56.5v312l118 45q24 25 24 56.5t-24 56.5zM657.5 448
q20.5 0 35.5 -15t15 -36t-15 -35.5t-35.5 -14.5t-35.5 14.5t-15 35.5t15 36t35.5 15zM366.5 448q20.5 0 35.5 -15t15 -36t-15 -35.5t-35.5 -14.5t-35.5 14.5t-15 35.5t15 36t35.5 15zM754 167q-46 -60 -109.5 -96.5t-132.5 -36.5h-1q-68 0 -131.5 36t-109.5 95
q-8 11 -6.5 25t12.5 22q9 7 20 7q18 1 28 -13q34 -43 83 -67t104 -24q56 0 105.5 24.5t83.5 68.5q10 14 28 13q11 0 20 -7q11 -8 13 -22t-7 -25z" />
    <glyph glyph-name="uniE65E" unicode="&#xe65e;" 
d="M376 2h-40v91q-24 2 -46 5.5t-52.5 13.5t-53 24.5t-38.5 40t-17 58.5l34 1q1 -24 16 -44t34.5 -30.5t41 -18t34 -9.5t14.5 -2l70 -6v-124h3zM664 767q-54 0 -102 -22q-28 -13 -51 -33q-24 20 -52 33q-48 22 -103 22q-46 0 -85 -20q-36 -19 -62 -53q-50 -65 -50 -154
q0 -229 332 -410l21 -11l20 11q332 182 332 411q0 57 -23 108t-70 84.5t-107 33.5zM351 419q-25 14 -43.5 34.5t-27 38.5t-12.5 38t-4.5 27.5t-0.5 13.5l36 -2q0 -4 0.5 -10.5t3.5 -21.5t9 -29t18 -28.5t28 -23.5zM650 2v124l70 6q2 0 14.5 2t34 9.5t41 18t34.5 30.5t16 44
l34 -1q-1 -33 -17 -58.5t-38.5 -40t-53 -24.5t-52.5 -13.5t-46 -5.5v-91h-40h3z" />
    <glyph glyph-name="uniE65F" unicode="&#xe65f;" 
d="M374 835q74 9 117 10q124 1 229 -27q6 -1 90 -29q31 -9 92 -37q27 -15 31 -18q18 -17 24 -44v-111v-111q1 -14 -5 -24q-11 -20 -35 -19q-15 0 -26 11.5t-11 26.5v109v111q-8 4 -24 11t-23 10q-134 50 -211 61q-76 10 -140 7q-22 -1 -72 -7q-13 -1 -48 -8
q-107 -23 -173 -52l-47 -21q-1 -98 2 -242q4 -95 7 -122q1 -7 11 -33q16 -44 73 -110q63 -67 166 -126q39 -24 97 -50q3 -1 19 -1q85 33 182 100q26 18 37 29q8 6 21 19t19 18q65 65 89 141q5 14 18.5 21t27.5 3q11 -3 19 -11.5t10 -19.5q1 -9 -8 -34q-30 -80 -97 -149
q-8 -7 -43 -40q-4 -3 -11.5 -9.5t-10.5 -9.5q-36 -26 -54 -38q-11 -7 -32.5 -20t-30.5 -18q-71 -38 -99 -50q-27 -9 -31 -9h-34q-8 0 -35 12q-109 50 -194 115q-51 39 -85 76q-60 70 -82 119q-18 43 -20 62q-7 53 -11 212v25v26q-1 8 -0.5 60t0.5 60q2 29 22 45q14 11 18 12
q10 5 30.5 14t26.5 12q81 35 215 62zM374 835zM762 597q13 12 32 10t29 -16q8 -11 6.5 -24.5t-10.5 -23.5q-45 -43 -150 -146.5t-161 -158.5q-9 -9 -22.5 -11.5t-24.5 3.5q-5 2 -13 10l-8 8q-142 140 -160 157q-15 13 -14 28q-1 13 7.5 25t22.5 14q19 5 35 -10
q21 -21 70.5 -70t76.5 -75q50 49 145 142.5t139 137.5zM762 597z" />
    </font>
</defs>
</svg>
